ISO-10303-21;
HEADER;
/* Generated by software containing ST-Developer
 * from STEP Tools, Inc. (www.steptools.com) 
 */

FILE_DESCRIPTION(
/* description */ (''),
/* implementation_level */ '2;1');

FILE_NAME(
/* name */ 'O.step',
/* time_stamp */ '2026-08-27T00:44:51+09:00',
/* author */ (''),
/* organization */ (''),
/* preprocessor_version */ 'ST-DEVELOPER v20.1',
/* originating_system */ 'Autodesk Translation Framework v15.8.0.0',
/* authorisation */ '');

FILE_SCHEMA (('AUTOMOTIVE_DESIGN { 1 0 10303 214 3 1 1 }'));
ENDSEC;

DATA;
#10=MECHANICAL_DESIGN_GEOMETRIC_PRESENTATION_REPRESENTATION('',(#13),#1068);
#11=SHAPE_REPRESENTATION_RELATIONSHIP('SRR','None',#1075,#12);
#12=ADVANCED_BREP_SHAPE_REPRESENTATION('',(#14),#1067);
#13=STYLED_ITEM('',(#1084),#14);
#14=MANIFOLD_SOLID_BREP('O',#364);
#15=FACE_BOUND('',#103,.T.);
#16=FACE_BOUND('',#114,.T.);
#17=PLANE('',#390);
#18=PLANE('',#393);
#19=PLANE('',#394);
#20=PLANE('',#415);
#21=PLANE('',#420);
#22=LINE('',#612,#41);
#23=LINE('',#651,#42);
#24=LINE('',#693,#43);
#25=LINE('',#732,#44);
#26=LINE('',#779,#45);
#27=LINE('',#780,#46);
#28=LINE('',#783,#47);
#29=LINE('',#785,#48);
#30=LINE('',#786,#49);
#31=LINE('',#789,#50);
#32=LINE('',#793,#51);
#33=LINE('',#794,#52);
#34=LINE('',#808,#53);
#35=LINE('',#927,#54);
#36=LINE('',#1010,#55);
#37=LINE('',#1011,#56);
#38=LINE('',#1054,#57);
#39=LINE('',#1056,#58);
#40=LINE('',#1063,#59);
#41=VECTOR('',#431,10.);
#42=VECTOR('',#432,10.);
#43=VECTOR('',#435,10.);
#44=VECTOR('',#436,10.);
#45=VECTOR('',#451,10.);
#46=VECTOR('',#452,10.);
#47=VECTOR('',#455,10.);
#48=VECTOR('',#456,10.);
#49=VECTOR('',#457,10.);
#50=VECTOR('',#460,10.);
#51=VECTOR('',#465,10.);
#52=VECTOR('',#466,10.);
#53=VECTOR('',#483,14.);
#54=VECTOR('',#492,10.);
#55=VECTOR('',#501,10.);
#56=VECTOR('',#502,10.);
#57=VECTOR('',#511,10.);
#58=VECTOR('',#514,10.);
#59=VECTOR('',#525,10.);
#60=CYLINDRICAL_SURFACE('',#381,1.);
#61=CYLINDRICAL_SURFACE('',#382,1.);
#62=CYLINDRICAL_SURFACE('',#389,1.);
#63=CYLINDRICAL_SURFACE('',#391,20.0000301843373);
#64=CYLINDRICAL_SURFACE('',#400,14.);
#65=CYLINDRICAL_SURFACE('',#405,1.);
#66=CYLINDRICAL_SURFACE('',#409,1.);
#67=CYLINDRICAL_SURFACE('',#413,1.);
#68=CYLINDRICAL_SURFACE('',#414,20.0000301843373);
#69=CYLINDRICAL_SURFACE('',#419,20.0000301843373);
#70=FACE_OUTER_BOUND('',#93,.T.);
#71=FACE_OUTER_BOUND('',#94,.T.);
#72=FACE_OUTER_BOUND('',#95,.T.);
#73=FACE_OUTER_BOUND('',#96,.T.);
#74=FACE_OUTER_BOUND('',#97,.T.);
#75=FACE_OUTER_BOUND('',#98,.T.);
#76=FACE_OUTER_BOUND('',#99,.T.);
#77=FACE_OUTER_BOUND('',#100,.T.);
#78=FACE_OUTER_BOUND('',#101,.T.);
#79=FACE_OUTER_BOUND('',#102,.T.);
#80=FACE_OUTER_BOUND('',#104,.T.);
#81=FACE_OUTER_BOUND('',#105,.T.);
#82=FACE_OUTER_BOUND('',#106,.T.);
#83=FACE_OUTER_BOUND('',#107,.T.);
#84=FACE_OUTER_BOUND('',#108,.T.);
#85=FACE_OUTER_BOUND('',#109,.T.);
#86=FACE_OUTER_BOUND('',#110,.T.);
#87=FACE_OUTER_BOUND('',#111,.T.);
#88=FACE_OUTER_BOUND('',#112,.T.);
#89=FACE_OUTER_BOUND('',#113,.T.);
#90=FACE_OUTER_BOUND('',#115,.T.);
#91=FACE_OUTER_BOUND('',#116,.T.);
#92=FACE_OUTER_BOUND('',#117,.T.);
#93=EDGE_LOOP('',(#231,#232,#233,#234));
#94=EDGE_LOOP('',(#235,#236,#237,#238));
#95=EDGE_LOOP('',(#239,#240,#241,#242));
#96=EDGE_LOOP('',(#243,#244,#245,#246));
#97=EDGE_LOOP('',(#247,#248,#249,#250));
#98=EDGE_LOOP('',(#251,#252,#253,#254));
#99=EDGE_LOOP('',(#255,#256,#257,#258));
#100=EDGE_LOOP('',(#259,#260,#261,#262));
#101=EDGE_LOOP('',(#263,#264,#265,#266));
#102=EDGE_LOOP('',(#267,#268,#269,#270,#271,#272));
#103=EDGE_LOOP('',(#273));
#104=EDGE_LOOP('',(#274,#275,#276,#277,#278));
#105=EDGE_LOOP('',(#279,#280,#281,#282,#283,#284));
#106=EDGE_LOOP('',(#285,#286,#287,#288));
#107=EDGE_LOOP('',(#289,#290,#291,#292));
#108=EDGE_LOOP('',(#293,#294,#295,#296));
#109=EDGE_LOOP('',(#297,#298,#299,#300));
#110=EDGE_LOOP('',(#301,#302,#303,#304));
#111=EDGE_LOOP('',(#305,#306,#307,#308));
#112=EDGE_LOOP('',(#309,#310,#311,#312));
#113=EDGE_LOOP('',(#313,#314,#315,#316,#317,#318));
#114=EDGE_LOOP('',(#319));
#115=EDGE_LOOP('',(#320,#321,#322,#323,#324));
#116=EDGE_LOOP('',(#325,#326,#327,#328));
#117=EDGE_LOOP('',(#329,#330,#331,#332));
#118=CIRCLE('',#379,20.0000301843373);
#119=CIRCLE('',#380,19.0000301843373);
#120=CIRCLE('',#384,20.0000301843373);
#121=CIRCLE('',#385,19.0000301843373);
#122=CIRCLE('',#387,19.0000301843373);
#123=CIRCLE('',#388,20.0000301843373);
#124=CIRCLE('',#392,20.0000301843373);
#125=CIRCLE('',#395,15.);
#126=CIRCLE('',#397,14.);
#127=CIRCLE('',#398,1.);
#128=CIRCLE('',#399,14.);
#129=CIRCLE('',#401,14.);
#130=CIRCLE('',#402,14.);
#131=CIRCLE('',#404,19.0000301843373);
#132=CIRCLE('',#407,19.0000301843373);
#133=CIRCLE('',#408,20.0000301843373);
#134=CIRCLE('',#411,19.0000301843373);
#135=CIRCLE('',#412,20.0000301843373);
#136=CIRCLE('',#416,15.);
#137=CIRCLE('',#418,1.);
#138=B_SPLINE_CURVE_WITH_KNOTS('',3,(#532,#533,#534,#535,#536,#537,#538,
#539,#540,#541,#542,#543,#544,#545,#546,#547,#548,#549,#550,#551,#552,#553,
#554,#555,#556,#557,#558,#559,#560,#561,#562,#563,#564,#565,#566,#567,#568),
 .UNSPECIFIED.,.F.,.F.,(4,3,3,3,3,3,3,3,3,3,3,3,4),(0.,0.133018241956809,
0.266031284138984,0.399039586897949,0.532043610411816,0.665085877441076,
0.798114695122361,0.931131907315763,1.06413935616735,1.19717890907651,1.3301941111522,
1.46322843527297,1.57079680244861),.UNSPECIFIED.);
#139=B_SPLINE_CURVE_WITH_KNOTS('',3,(#572,#573,#574,#575,#576,#577,#578,
#579,#580,#581,#582,#583,#584,#585,#586,#587,#588,#589,#590,#591,#592,#593,
#594,#595,#596,#597,#598,#599,#600,#601,#602,#603,#604,#605,#606,#607,#608),
 .UNSPECIFIED.,.F.,.F.,(4,3,3,3,3,3,3,3,3,3,3,3,4),(0.,0.133018201191286,
0.266031202599877,0.399039464570298,0.532043447274742,0.665085673442875,
0.798114450238835,0.931131621522123,1.06413902943968,1.19717854137187,1.33019370246233,
1.46322798557966,1.5707963296581),.UNSPECIFIED.);
#140=B_SPLINE_CURVE_WITH_KNOTS('',3,(#614,#615,#616,#617,#618,#619,#620,
#621,#622,#623,#624,#625,#626,#627,#628,#629,#630,#631,#632,#633,#634,#635,
#636,#637,#638,#639,#640,#641,#642,#643,#644,#645,#646,#647,#648,#649,#650),
 .UNSPECIFIED.,.F.,.F.,(4,3,3,3,3,3,3,3,3,3,3,3,4),(0.,0.133018289206688,
0.266031378636915,0.399039728642237,0.532043799400926,0.665086113688604,
0.798114978623527,0.931132238066445,1.06413973416408,1.19717933433069,1.33019458365518,
1.46322895503154,1.57079736041695),.UNSPECIFIED.);
#141=B_SPLINE_CURVE_WITH_KNOTS('',3,(#655,#656,#657,#658,#659,#660,#661,
#662,#663,#664,#665,#666,#667,#668,#669,#670,#671,#672,#673,#674,#675,#676,
#677,#678,#679,#680,#681,#682,#683,#684,#685,#686,#687,#688,#689,#690,#691),
 .UNSPECIFIED.,.F.,.F.,(4,3,3,3,3,3,3,3,3,3,3,3,4),(0.,0.133018242358471,
0.26603128494229,0.39903958810291,0.5320436120184,0.665085879449393,0.79811469753237,
0.931131910127438,1.06413935938063,1.19717891269152,1.33019411516887,1.46322843969134,
1.57079680719178),.UNSPECIFIED.);
#142=B_SPLINE_CURVE_WITH_KNOTS('',3,(#695,#696,#697,#698,#699,#700,#701,
#702,#703,#704,#705,#706,#707,#708,#709,#710,#711,#712,#713,#714,#715,#716,
#717,#718,#719,#720,#721,#722,#723,#724,#725,#726,#727,#728,#729,#730,#731),
 .UNSPECIFIED.,.F.,.F.,(4,3,3,3,3,3,3,3,3,3,3,3,4),(0.,0.133018242358467,
0.266031284942292,0.399039588102904,0.53204361201841,0.665085879449402,
0.798114697532381,0.931131910127441,1.06413935938064,1.19717891269153,1.33019411516886,
1.46322843969134,1.57079680719178),.UNSPECIFIED.);
#143=B_SPLINE_CURVE_WITH_KNOTS('',3,(#739,#740,#741,#742,#743,#744,#745,
#746,#747,#748,#749,#750,#751,#752,#753,#754,#755,#756,#757,#758,#759,#760,
#761,#762,#763,#764,#765,#766,#767,#768,#769,#770,#771,#772,#773,#774,#775),
 .UNSPECIFIED.,.F.,.F.,(4,3,3,3,3,3,3,3,3,3,3,3,4),(0.,0.133018201453748,
0.266031203130006,0.399039465376961,0.532043448369889,0.665085674848168,
0.79811445196954,0.931131623593507,1.06413903186626,1.19717854417158,1.33019370564359,
1.46322798914918,1.57079632811249),.UNSPECIFIED.);
#144=B_SPLINE_CURVE_WITH_KNOTS('',3,(#812,#813,#814,#815,#816,#817,#818,
#819,#820,#821,#822,#823,#824,#825,#826,#827,#828,#829,#830,#831,#832,#833,
#834,#835,#836,#837,#838,#839,#840,#841,#842,#843,#844,#845,#846,#847,#848),
 .UNSPECIFIED.,.F.,.F.,(4,3,3,3,3,3,3,3,3,3,3,3,4),(0.,0.133018241956808,
0.266031284138981,0.399039586897968,0.532043610411847,0.665085877441107,
0.798114695122394,0.931131907315788,1.06413935616736,1.19717890907652,1.33019411115221,
1.46322843527297,1.57079680244861),.UNSPECIFIED.);
#145=B_SPLINE_CURVE_WITH_KNOTS('',3,(#850,#851,#852,#853,#854,#855,#856,
#857,#858,#859,#860,#861,#862,#863,#864,#865,#866,#867,#868,#869,#870,#871,
#872,#873,#874,#875,#876,#877,#878,#879,#880,#881,#882,#883,#884,#885,#886),
 .UNSPECIFIED.,.F.,.F.,(4,3,3,3,3,3,3,3,3,3,3,3,4),(0.,0.133018201451515,
0.266031203125498,0.399039465370092,0.53204344836056,0.6650856748362,0.798114451954795,
0.931131623575866,1.06413903184559,1.19717854414774,1.33019370561651,1.46322798911881,
1.57079632812563),.UNSPECIFIED.);
#146=B_SPLINE_CURVE_WITH_KNOTS('',3,(#890,#891,#892,#893,#894,#895,#896,
#897,#898,#899,#900,#901,#902,#903,#904,#905,#906,#907,#908,#909,#910,#911,
#912,#913,#914,#915,#916,#917,#918,#919,#920,#921,#922,#923,#924,#925,#926),
 .UNSPECIFIED.,.F.,.F.,(4,3,3,3,3,3,3,3,3,3,3,3,4),(0.,0.133018242358471,
0.266031284942288,0.399039588102902,0.532043612018349,0.66508587944934,
0.79811469753232,0.931131910127383,1.0641393593806,1.19717891269149,1.33019411516883,
1.46322843969131,1.57079680719178),.UNSPECIFIED.);
#147=B_SPLINE_CURVE_WITH_KNOTS('',3,(#931,#932,#933,#934,#935,#936,#937,
#938,#939,#940,#941,#942,#943,#944,#945,#946,#947,#948,#949,#950,#951,#952,
#953,#954,#955,#956,#957,#958,#959,#960,#961,#962,#963,#964,#965,#966,#967),
 .UNSPECIFIED.,.F.,.F.,(4,3,3,3,3,3,3,3,3,3,3,3,4),(0.,0.133018201191286,
0.266031202599882,0.399039464570303,0.532043447274736,0.665085673442874,
0.798114450238841,0.931131621522107,1.06413902943966,1.19717854137185,1.33019370246233,
1.46322798557966,1.57079632965811),.UNSPECIFIED.);
#148=B_SPLINE_CURVE_WITH_KNOTS('',3,(#973,#974,#975,#976,#977,#978,#979,
#980,#981,#982,#983,#984,#985,#986,#987,#988,#989,#990,#991,#992,#993,#994,
#995,#996,#997,#998,#999,#1000,#1001,#1002,#1003,#1004,#1005,#1006,#1007,
#1008,#1009),.UNSPECIFIED.,.F.,.F.,(4,3,3,3,3,3,3,3,3,3,3,3,4),(0.,0.133018289206685,
0.266031378636902,0.39903972864224,0.532043799400938,0.665086113688617,
0.798114978623545,0.931132238066457,1.06413973416406,1.19717933433068,1.33019458365517,
1.46322895503153,1.57079736041695),.UNSPECIFIED.);
#149=B_SPLINE_CURVE_WITH_KNOTS('',3,(#1014,#1015,#1016,#1017,#1018,#1019,
#1020,#1021,#1022,#1023,#1024,#1025,#1026,#1027,#1028,#1029,#1030,#1031,
#1032,#1033,#1034,#1035,#1036,#1037,#1038,#1039,#1040,#1041,#1042,#1043,
#1044,#1045,#1046,#1047,#1048,#1049,#1050),.UNSPECIFIED.,.F.,.F.,(4,3,3,
3,3,3,3,3,3,3,3,3,4),(0.,0.133018201453746,0.266031203129998,0.399039465376939,
0.532043448369854,0.665085674848134,0.798114451969504,0.931131623593475,
1.06413903186622,1.19717854417154,1.33019370564357,1.46322798914916,1.57079632811249),
 .UNSPECIFIED.);
#150=VERTEX_POINT('',#530);
#151=VERTEX_POINT('',#531);
#152=VERTEX_POINT('',#569);
#153=VERTEX_POINT('',#571);
#154=VERTEX_POINT('',#611);
#155=VERTEX_POINT('',#613);
#156=VERTEX_POINT('',#653);
#157=VERTEX_POINT('',#654);
#158=VERTEX_POINT('',#692);
#159=VERTEX_POINT('',#694);
#160=VERTEX_POINT('',#737);
#161=VERTEX_POINT('',#738);
#162=VERTEX_POINT('',#782);
#163=VERTEX_POINT('',#784);
#164=VERTEX_POINT('',#788);
#165=VERTEX_POINT('',#792);
#166=VERTEX_POINT('',#796);
#167=VERTEX_POINT('',#799);
#168=VERTEX_POINT('',#800);
#169=VERTEX_POINT('',#805);
#170=VERTEX_POINT('',#806);
#171=VERTEX_POINT('',#811);
#172=VERTEX_POINT('',#849);
#173=VERTEX_POINT('',#889);
#174=VERTEX_POINT('',#929);
#175=VERTEX_POINT('',#930);
#176=VERTEX_POINT('',#971);
#177=VERTEX_POINT('',#972);
#178=VERTEX_POINT('',#1013);
#179=VERTEX_POINT('',#1058);
#180=EDGE_CURVE('',#150,#151,#138,.T.);
#181=EDGE_CURVE('',#150,#152,#118,.T.);
#182=EDGE_CURVE('',#152,#153,#139,.T.);
#183=EDGE_CURVE('',#153,#151,#119,.T.);
#184=EDGE_CURVE('',#152,#154,#22,.T.);
#185=EDGE_CURVE('',#154,#155,#140,.T.);
#186=EDGE_CURVE('',#155,#153,#23,.T.);
#187=EDGE_CURVE('',#156,#157,#141,.T.);
#188=EDGE_CURVE('',#157,#158,#24,.T.);
#189=EDGE_CURVE('',#158,#159,#142,.T.);
#190=EDGE_CURVE('',#159,#156,#25,.T.);
#191=EDGE_CURVE('',#154,#159,#120,.T.);
#192=EDGE_CURVE('',#158,#155,#121,.T.);
#193=EDGE_CURVE('',#160,#161,#143,.T.);
#194=EDGE_CURVE('',#161,#157,#122,.T.);
#195=EDGE_CURVE('',#156,#160,#123,.T.);
#196=EDGE_CURVE('',#151,#161,#26,.T.);
#197=EDGE_CURVE('',#160,#150,#27,.T.);
#198=EDGE_CURVE('',#160,#162,#28,.T.);
#199=EDGE_CURVE('',#163,#162,#29,.T.);
#200=EDGE_CURVE('',#150,#163,#30,.T.);
#201=EDGE_CURVE('',#156,#164,#31,.T.);
#202=EDGE_CURVE('',#162,#164,#124,.T.);
#203=EDGE_CURVE('',#159,#165,#32,.T.);
#204=EDGE_CURVE('',#164,#165,#33,.T.);
#205=EDGE_CURVE('',#166,#166,#125,.T.);
#206=EDGE_CURVE('',#167,#168,#126,.T.);
#207=EDGE_CURVE('',#168,#166,#127,.T.);
#208=EDGE_CURVE('',#168,#167,#128,.T.);
#209=EDGE_CURVE('',#169,#170,#129,.T.);
#210=EDGE_CURVE('',#169,#167,#34,.T.);
#211=EDGE_CURVE('',#170,#169,#130,.T.);
#212=EDGE_CURVE('',#162,#171,#144,.T.);
#213=EDGE_CURVE('',#164,#172,#145,.T.);
#214=EDGE_CURVE('',#172,#171,#131,.T.);
#215=EDGE_CURVE('',#165,#173,#146,.T.);
#216=EDGE_CURVE('',#173,#172,#35,.T.);
#217=EDGE_CURVE('',#174,#175,#147,.T.);
#218=EDGE_CURVE('',#175,#173,#132,.T.);
#219=EDGE_CURVE('',#165,#174,#133,.T.);
#220=EDGE_CURVE('',#176,#177,#148,.T.);
#221=EDGE_CURVE('',#177,#175,#36,.T.);
#222=EDGE_CURVE('',#174,#176,#37,.T.);
#223=EDGE_CURVE('',#163,#178,#149,.T.);
#224=EDGE_CURVE('',#178,#177,#134,.T.);
#225=EDGE_CURVE('',#176,#163,#135,.T.);
#226=EDGE_CURVE('',#171,#178,#38,.T.);
#227=EDGE_CURVE('',#154,#174,#39,.T.);
#228=EDGE_CURVE('',#179,#179,#136,.T.);
#229=EDGE_CURVE('',#179,#170,#137,.T.);
#230=EDGE_CURVE('',#152,#176,#40,.T.);
#231=ORIENTED_EDGE('',*,*,#180,.F.);
#232=ORIENTED_EDGE('',*,*,#181,.T.);
#233=ORIENTED_EDGE('',*,*,#182,.T.);
#234=ORIENTED_EDGE('',*,*,#183,.T.);
#235=ORIENTED_EDGE('',*,*,#182,.F.);
#236=ORIENTED_EDGE('',*,*,#184,.T.);
#237=ORIENTED_EDGE('',*,*,#185,.T.);
#238=ORIENTED_EDGE('',*,*,#186,.T.);
#239=ORIENTED_EDGE('',*,*,#187,.T.);
#240=ORIENTED_EDGE('',*,*,#188,.T.);
#241=ORIENTED_EDGE('',*,*,#189,.T.);
#242=ORIENTED_EDGE('',*,*,#190,.T.);
#243=ORIENTED_EDGE('',*,*,#185,.F.);
#244=ORIENTED_EDGE('',*,*,#191,.T.);
#245=ORIENTED_EDGE('',*,*,#189,.F.);
#246=ORIENTED_EDGE('',*,*,#192,.T.);
#247=ORIENTED_EDGE('',*,*,#193,.T.);
#248=ORIENTED_EDGE('',*,*,#194,.T.);
#249=ORIENTED_EDGE('',*,*,#187,.F.);
#250=ORIENTED_EDGE('',*,*,#195,.T.);
#251=ORIENTED_EDGE('',*,*,#180,.T.);
#252=ORIENTED_EDGE('',*,*,#196,.T.);
#253=ORIENTED_EDGE('',*,*,#193,.F.);
#254=ORIENTED_EDGE('',*,*,#197,.T.);
#255=ORIENTED_EDGE('',*,*,#197,.F.);
#256=ORIENTED_EDGE('',*,*,#198,.T.);
#257=ORIENTED_EDGE('',*,*,#199,.F.);
#258=ORIENTED_EDGE('',*,*,#200,.F.);
#259=ORIENTED_EDGE('',*,*,#195,.F.);
#260=ORIENTED_EDGE('',*,*,#201,.T.);
#261=ORIENTED_EDGE('',*,*,#202,.F.);
#262=ORIENTED_EDGE('',*,*,#198,.F.);
#263=ORIENTED_EDGE('',*,*,#190,.F.);
#264=ORIENTED_EDGE('',*,*,#203,.T.);
#265=ORIENTED_EDGE('',*,*,#204,.F.);
#266=ORIENTED_EDGE('',*,*,#201,.F.);
#267=ORIENTED_EDGE('',*,*,#188,.F.);
#268=ORIENTED_EDGE('',*,*,#194,.F.);
#269=ORIENTED_EDGE('',*,*,#196,.F.);
#270=ORIENTED_EDGE('',*,*,#183,.F.);
#271=ORIENTED_EDGE('',*,*,#186,.F.);
#272=ORIENTED_EDGE('',*,*,#192,.F.);
#273=ORIENTED_EDGE('',*,*,#205,.F.);
#274=ORIENTED_EDGE('',*,*,#206,.T.);
#275=ORIENTED_EDGE('',*,*,#207,.T.);
#276=ORIENTED_EDGE('',*,*,#205,.T.);
#277=ORIENTED_EDGE('',*,*,#207,.F.);
#278=ORIENTED_EDGE('',*,*,#208,.T.);
#279=ORIENTED_EDGE('',*,*,#209,.F.);
#280=ORIENTED_EDGE('',*,*,#210,.T.);
#281=ORIENTED_EDGE('',*,*,#208,.F.);
#282=ORIENTED_EDGE('',*,*,#206,.F.);
#283=ORIENTED_EDGE('',*,*,#210,.F.);
#284=ORIENTED_EDGE('',*,*,#211,.F.);
#285=ORIENTED_EDGE('',*,*,#212,.F.);
#286=ORIENTED_EDGE('',*,*,#202,.T.);
#287=ORIENTED_EDGE('',*,*,#213,.T.);
#288=ORIENTED_EDGE('',*,*,#214,.T.);
#289=ORIENTED_EDGE('',*,*,#213,.F.);
#290=ORIENTED_EDGE('',*,*,#204,.T.);
#291=ORIENTED_EDGE('',*,*,#215,.T.);
#292=ORIENTED_EDGE('',*,*,#216,.T.);
#293=ORIENTED_EDGE('',*,*,#217,.T.);
#294=ORIENTED_EDGE('',*,*,#218,.T.);
#295=ORIENTED_EDGE('',*,*,#215,.F.);
#296=ORIENTED_EDGE('',*,*,#219,.T.);
#297=ORIENTED_EDGE('',*,*,#220,.T.);
#298=ORIENTED_EDGE('',*,*,#221,.T.);
#299=ORIENTED_EDGE('',*,*,#217,.F.);
#300=ORIENTED_EDGE('',*,*,#222,.T.);
#301=ORIENTED_EDGE('',*,*,#223,.T.);
#302=ORIENTED_EDGE('',*,*,#224,.T.);
#303=ORIENTED_EDGE('',*,*,#220,.F.);
#304=ORIENTED_EDGE('',*,*,#225,.T.);
#305=ORIENTED_EDGE('',*,*,#212,.T.);
#306=ORIENTED_EDGE('',*,*,#226,.T.);
#307=ORIENTED_EDGE('',*,*,#223,.F.);
#308=ORIENTED_EDGE('',*,*,#199,.T.);
#309=ORIENTED_EDGE('',*,*,#191,.F.);
#310=ORIENTED_EDGE('',*,*,#227,.T.);
#311=ORIENTED_EDGE('',*,*,#219,.F.);
#312=ORIENTED_EDGE('',*,*,#203,.F.);
#313=ORIENTED_EDGE('',*,*,#214,.F.);
#314=ORIENTED_EDGE('',*,*,#216,.F.);
#315=ORIENTED_EDGE('',*,*,#218,.F.);
#316=ORIENTED_EDGE('',*,*,#221,.F.);
#317=ORIENTED_EDGE('',*,*,#224,.F.);
#318=ORIENTED_EDGE('',*,*,#226,.F.);
#319=ORIENTED_EDGE('',*,*,#228,.F.);
#320=ORIENTED_EDGE('',*,*,#228,.T.);
#321=ORIENTED_EDGE('',*,*,#229,.T.);
#322=ORIENTED_EDGE('',*,*,#211,.T.);
#323=ORIENTED_EDGE('',*,*,#209,.T.);
#324=ORIENTED_EDGE('',*,*,#229,.F.);
#325=ORIENTED_EDGE('',*,*,#181,.F.);
#326=ORIENTED_EDGE('',*,*,#200,.T.);
#327=ORIENTED_EDGE('',*,*,#225,.F.);
#328=ORIENTED_EDGE('',*,*,#230,.F.);
#329=ORIENTED_EDGE('',*,*,#184,.F.);
#330=ORIENTED_EDGE('',*,*,#230,.T.);
#331=ORIENTED_EDGE('',*,*,#222,.F.);
#332=ORIENTED_EDGE('',*,*,#227,.F.);
#333=TOROIDAL_SURFACE('',#378,19.0000301843373,1.);
#334=TOROIDAL_SURFACE('',#383,19.0000301843373,1.);
#335=TOROIDAL_SURFACE('',#386,19.0000301843373,1.);
#336=TOROIDAL_SURFACE('',#396,15.,1.);
#337=TOROIDAL_SURFACE('',#403,19.0000301843373,1.);
#338=TOROIDAL_SURFACE('',#406,19.0000301843373,1.);
#339=TOROIDAL_SURFACE('',#410,19.0000301843373,1.);
#340=TOROIDAL_SURFACE('',#417,15.,1.);
#341=ADVANCED_FACE('',(#70),#333,.T.);
#342=ADVANCED_FACE('',(#71),#60,.T.);
#343=ADVANCED_FACE('',(#72),#61,.T.);
#344=ADVANCED_FACE('',(#73),#334,.T.);
#345=ADVANCED_FACE('',(#74),#335,.T.);
#346=ADVANCED_FACE('',(#75),#62,.T.);
#347=ADVANCED_FACE('',(#76),#17,.T.);
#348=ADVANCED_FACE('',(#77),#63,.T.);
#349=ADVANCED_FACE('',(#78),#18,.T.);
#350=ADVANCED_FACE('',(#79,#15),#19,.F.);
#351=ADVANCED_FACE('',(#80),#336,.T.);
#352=ADVANCED_FACE('',(#81),#64,.F.);
#353=ADVANCED_FACE('',(#82),#337,.T.);
#354=ADVANCED_FACE('',(#83),#65,.T.);
#355=ADVANCED_FACE('',(#84),#338,.T.);
#356=ADVANCED_FACE('',(#85),#66,.T.);
#357=ADVANCED_FACE('',(#86),#339,.T.);
#358=ADVANCED_FACE('',(#87),#67,.T.);
#359=ADVANCED_FACE('',(#88),#68,.T.);
#360=ADVANCED_FACE('',(#89,#16),#20,.T.);
#361=ADVANCED_FACE('',(#90),#340,.T.);
#362=ADVANCED_FACE('',(#91),#69,.T.);
#363=ADVANCED_FACE('',(#92),#21,.T.);
#364=CLOSED_SHELL('',(#341,#342,#343,#344,#345,#346,#347,#348,#349,#350,
#351,#352,#353,#354,#355,#356,#357,#358,#359,#360,#361,#362,#363));
#365=DERIVED_UNIT_ELEMENT(#367,1.);
#366=DERIVED_UNIT_ELEMENT(#1070,-3.);
#367=(
MASS_UNIT()
NAMED_UNIT(*)
SI_UNIT(.KILO.,.GRAM.)
);
#368=DERIVED_UNIT((#365,#366));
#369=MEASURE_REPRESENTATION_ITEM('density measure',
POSITIVE_RATIO_MEASURE(7850.),#368);
#370=PROPERTY_DEFINITION_REPRESENTATION(#375,#372);
#371=PROPERTY_DEFINITION_REPRESENTATION(#376,#373);
#372=REPRESENTATION('material name',(#374),#1067);
#373=REPRESENTATION('density',(#369),#1067);
#374=DESCRIPTIVE_REPRESENTATION_ITEM('Steel','Steel');
#375=PROPERTY_DEFINITION('material property','material name',#1077);
#376=PROPERTY_DEFINITION('material property','density of part',#1077);
#377=AXIS2_PLACEMENT_3D('',#528,#421,#422);
#378=AXIS2_PLACEMENT_3D('',#529,#423,#424);
#379=AXIS2_PLACEMENT_3D('',#570,#425,#426);
#380=AXIS2_PLACEMENT_3D('',#609,#427,#428);
#381=AXIS2_PLACEMENT_3D('',#610,#429,#430);
#382=AXIS2_PLACEMENT_3D('',#652,#433,#434);
#383=AXIS2_PLACEMENT_3D('',#733,#437,#438);
#384=AXIS2_PLACEMENT_3D('',#734,#439,#440);
#385=AXIS2_PLACEMENT_3D('',#735,#441,#442);
#386=AXIS2_PLACEMENT_3D('',#736,#443,#444);
#387=AXIS2_PLACEMENT_3D('',#776,#445,#446);
#388=AXIS2_PLACEMENT_3D('',#777,#447,#448);
#389=AXIS2_PLACEMENT_3D('',#778,#449,#450);
#390=AXIS2_PLACEMENT_3D('',#781,#453,#454);
#391=AXIS2_PLACEMENT_3D('',#787,#458,#459);
#392=AXIS2_PLACEMENT_3D('',#790,#461,#462);
#393=AXIS2_PLACEMENT_3D('',#791,#463,#464);
#394=AXIS2_PLACEMENT_3D('',#795,#467,#468);
#395=AXIS2_PLACEMENT_3D('',#797,#469,#470);
#396=AXIS2_PLACEMENT_3D('',#798,#471,#472);
#397=AXIS2_PLACEMENT_3D('',#801,#473,#474);
#398=AXIS2_PLACEMENT_3D('',#802,#475,#476);
#399=AXIS2_PLACEMENT_3D('',#803,#477,#478);
#400=AXIS2_PLACEMENT_3D('',#804,#479,#480);
#401=AXIS2_PLACEMENT_3D('',#807,#481,#482);
#402=AXIS2_PLACEMENT_3D('',#809,#484,#485);
#403=AXIS2_PLACEMENT_3D('',#810,#486,#487);
#404=AXIS2_PLACEMENT_3D('',#887,#488,#489);
#405=AXIS2_PLACEMENT_3D('',#888,#490,#491);
#406=AXIS2_PLACEMENT_3D('',#928,#493,#494);
#407=AXIS2_PLACEMENT_3D('',#968,#495,#496);
#408=AXIS2_PLACEMENT_3D('',#969,#497,#498);
#409=AXIS2_PLACEMENT_3D('',#970,#499,#500);
#410=AXIS2_PLACEMENT_3D('',#1012,#503,#504);
#411=AXIS2_PLACEMENT_3D('',#1051,#505,#506);
#412=AXIS2_PLACEMENT_3D('',#1052,#507,#508);
#413=AXIS2_PLACEMENT_3D('',#1053,#509,#510);
#414=AXIS2_PLACEMENT_3D('',#1055,#512,#513);
#415=AXIS2_PLACEMENT_3D('',#1057,#515,#516);
#416=AXIS2_PLACEMENT_3D('',#1059,#517,#518);
#417=AXIS2_PLACEMENT_3D('',#1060,#519,#520);
#418=AXIS2_PLACEMENT_3D('',#1061,#521,#522);
#419=AXIS2_PLACEMENT_3D('',#1062,#523,#524);
#420=AXIS2_PLACEMENT_3D('',#1064,#526,#527);
#421=DIRECTION('axis',(0.,0.,1.));
#422=DIRECTION('refdir',(1.,0.,0.));
#423=DIRECTION('center_axis',(0.,0.,1.));
#424=DIRECTION('ref_axis',(1.,0.,0.));
#425=DIRECTION('center_axis',(0.,0.,-1.));
#426=DIRECTION('ref_axis',(0.999999832039256,0.000579587318412683,0.));
#427=DIRECTION('center_axis',(0.,0.,1.));
#428=DIRECTION('ref_axis',(0.999999832039256,0.000579587318412683,0.));
#429=DIRECTION('center_axis',(-1.,0.,0.));
#430=DIRECTION('ref_axis',(0.,-0.707106781186547,-0.707106781186548));
#431=DIRECTION('',(-1.,0.,0.));
#432=DIRECTION('',(1.,0.,0.));
#433=DIRECTION('center_axis',(0.,1.,0.));
#434=DIRECTION('ref_axis',(-0.707106781186546,0.,-0.707106781186549));
#435=DIRECTION('',(0.,-1.,0.));
#436=DIRECTION('',(0.,1.,0.));
#437=DIRECTION('center_axis',(0.,0.,1.));
#438=DIRECTION('ref_axis',(1.,0.,0.));
#439=DIRECTION('center_axis',(0.,0.,-1.));
#440=DIRECTION('ref_axis',(-0.70751219593727,-0.706701133860717,0.));
#441=DIRECTION('center_axis',(0.,0.,1.));
#442=DIRECTION('ref_axis',(-0.70751219593727,-0.706701133860717,0.));
#443=DIRECTION('center_axis',(0.,0.,1.));
#444=DIRECTION('ref_axis',(1.,0.,0.));
#445=DIRECTION('center_axis',(0.,0.,1.));
#446=DIRECTION('ref_axis',(-0.707102482094345,0.707111080252612,0.));
#447=DIRECTION('center_axis',(0.,0.,-1.));
#448=DIRECTION('ref_axis',(-0.707102482094345,0.707111080252612,0.));
#449=DIRECTION('center_axis',(1.,0.,0.));
#450=DIRECTION('ref_axis',(0.,0.707106781186546,-0.707106781186549));
#451=DIRECTION('',(-1.,0.,0.));
#452=DIRECTION('',(1.,0.,0.));
#453=DIRECTION('center_axis',(0.,1.,0.));
#454=DIRECTION('ref_axis',(-1.,0.,0.));
#455=DIRECTION('',(0.,0.,1.));
#456=DIRECTION('',(-1.,0.,0.));
#457=DIRECTION('',(0.,0.,1.));
#458=DIRECTION('center_axis',(0.,0.,1.));
#459=DIRECTION('ref_axis',(1.,0.,0.));
#460=DIRECTION('',(0.,0.,1.));
#461=DIRECTION('center_axis',(0.,0.,1.));
#462=DIRECTION('ref_axis',(-0.707102482094345,0.707111080252612,0.));
#463=DIRECTION('center_axis',(-1.,0.,0.));
#464=DIRECTION('ref_axis',(0.,-1.,0.));
#465=DIRECTION('',(0.,0.,1.));
#466=DIRECTION('',(0.,-1.,0.));
#467=DIRECTION('center_axis',(0.,0.,1.));
#468=DIRECTION('ref_axis',(1.,0.,0.));
#469=DIRECTION('center_axis',(0.,0.,-1.));
#470=DIRECTION('ref_axis',(1.,0.,0.));
#471=DIRECTION('center_axis',(0.,0.,-1.));
#472=DIRECTION('ref_axis',(-1.,0.,0.));
#473=DIRECTION('center_axis',(0.,0.,1.));
#474=DIRECTION('ref_axis',(1.,0.,0.));
#475=DIRECTION('center_axis',(0.,-1.,0.));
#476=DIRECTION('ref_axis',(1.,0.,0.));
#477=DIRECTION('center_axis',(0.,0.,1.));
#478=DIRECTION('ref_axis',(1.,0.,0.));
#479=DIRECTION('center_axis',(0.,0.,1.));
#480=DIRECTION('ref_axis',(1.,0.,0.));
#481=DIRECTION('center_axis',(0.,0.,-1.));
#482=DIRECTION('ref_axis',(1.,0.,0.));
#483=DIRECTION('',(0.,0.,-1.));
#484=DIRECTION('center_axis',(0.,0.,-1.));
#485=DIRECTION('ref_axis',(1.,0.,0.));
#486=DIRECTION('center_axis',(0.,0.,1.));
#487=DIRECTION('ref_axis',(1.,0.,0.));
#488=DIRECTION('center_axis',(0.,0.,-1.));
#489=DIRECTION('ref_axis',(-0.707102482094345,0.707111080252612,0.));
#490=DIRECTION('center_axis',(0.,-1.,0.));
#491=DIRECTION('ref_axis',(-0.707106781186547,0.,0.707106781186548));
#492=DIRECTION('',(0.,1.,0.));
#493=DIRECTION('center_axis',(0.,0.,1.));
#494=DIRECTION('ref_axis',(1.,0.,0.));
#495=DIRECTION('center_axis',(0.,0.,-1.));
#496=DIRECTION('ref_axis',(-0.70751219593727,-0.706701133860717,0.));
#497=DIRECTION('center_axis',(0.,0.,1.));
#498=DIRECTION('ref_axis',(-0.70751219593727,-0.706701133860717,0.));
#499=DIRECTION('center_axis',(1.,0.,0.));
#500=DIRECTION('ref_axis',(0.,-0.707106781186548,0.707106781186547));
#501=DIRECTION('',(-1.,0.,0.));
#502=DIRECTION('',(1.,0.,0.));
#503=DIRECTION('center_axis',(0.,0.,1.));
#504=DIRECTION('ref_axis',(1.,0.,0.));
#505=DIRECTION('center_axis',(0.,0.,-1.));
#506=DIRECTION('ref_axis',(0.999999832039256,0.000579587318412683,0.));
#507=DIRECTION('center_axis',(0.,0.,1.));
#508=DIRECTION('ref_axis',(0.999999832039256,0.000579587318412683,0.));
#509=DIRECTION('center_axis',(-1.,0.,0.));
#510=DIRECTION('ref_axis',(0.,0.707106781186547,0.707106781186548));
#511=DIRECTION('',(1.,0.,0.));
#512=DIRECTION('center_axis',(0.,0.,1.));
#513=DIRECTION('ref_axis',(1.,0.,0.));
#514=DIRECTION('',(0.,0.,1.));
#515=DIRECTION('center_axis',(0.,0.,1.));
#516=DIRECTION('ref_axis',(1.,0.,0.));
#517=DIRECTION('center_axis',(0.,0.,1.));
#518=DIRECTION('ref_axis',(1.,0.,0.));
#519=DIRECTION('center_axis',(0.,0.,-1.));
#520=DIRECTION('ref_axis',(-1.,0.,0.));
#521=DIRECTION('center_axis',(0.,-1.,0.));
#522=DIRECTION('ref_axis',(1.,0.,0.));
#523=DIRECTION('center_axis',(0.,0.,1.));
#524=DIRECTION('ref_axis',(1.,0.,0.));
#525=DIRECTION('',(0.,0.,1.));
#526=DIRECTION('center_axis',(0.,-1.,0.));
#527=DIRECTION('ref_axis',(1.,0.,0.));
#528=CARTESIAN_POINT('',(0.,0.,0.));
#529=CARTESIAN_POINT('Origin',(-60.0000008940697,20.0000002980232,1.));
#530=CARTESIAN_POINT('',(-59.9511040237347,39.9999707097632,1.));
#531=CARTESIAN_POINT('',(-59.9523264436482,38.9999707097632,0.));
#532=CARTESIAN_POINT('Ctrl Pts',(-59.9511040237347,39.9999707097632,1.));
#533=CARTESIAN_POINT('Ctrl Pts',(-59.9511385293961,39.9999707097632,0.955660599440836));
#534=CARTESIAN_POINT('Ctrl Pts',(-59.9511730350576,39.997017395567,0.911321430043923));
#535=CARTESIAN_POINT('Ctrl Pts',(-59.951207540719,39.9911368257517,0.867373718606438));
#536=CARTESIAN_POINT('Ctrl Pts',(-59.9512420450315,39.9852564858118,0.823427725115242));
#537=CARTESIAN_POINT('Ctrl Pts',(-59.9512765493441,39.9764491807488,0.779873617112133));
#538=CARTESIAN_POINT('Ctrl Pts',(-59.9513110536566,39.9647926157865,0.737095664437692));
#539=CARTESIAN_POINT('Ctrl Pts',(-59.9513455567398,39.9531364661624,0.694319235995901));
#540=CARTESIAN_POINT('Ctrl Pts',(-59.9513800598229,39.938631381487,0.652319353409869));
#541=CARTESIAN_POINT('Ctrl Pts',(-59.951414562906,39.9214053283443,0.611466547540255));
#542=CARTESIAN_POINT('Ctrl Pts',(-59.9514490648791,39.9041798294114,0.570615056018433));
#543=CARTESIAN_POINT('Ctrl Pts',(-59.9514835668522,39.8842337168887,0.530910993091457));
#544=CARTESIAN_POINT('Ctrl Pts',(-59.9515180688252,39.8617429478383,0.492704612988573));
#545=CARTESIAN_POINT('Ctrl Pts',(-59.9515525807189,39.8392457118702,0.454487247155733));
#546=CARTESIAN_POINT('Ctrl Pts',(-59.9515870926125,39.8142025882984,0.417768825418685));
#547=CARTESIAN_POINT('Ctrl Pts',(-59.9516216045062,39.7868346248168,0.382873449617955));
#548=CARTESIAN_POINT('Ctrl Pts',(-59.951656112911,39.7594694279843,0.347981601418357));
#549=CARTESIAN_POINT('Ctrl Pts',(-59.9516906213158,39.7297801474169,0.31491279403275));
#550=CARTESIAN_POINT('Ctrl Pts',(-59.9517251297206,39.6980287881195,0.283958856460393));
#551=CARTESIAN_POINT('Ctrl Pts',(-59.9517596351149,39.6662801988235,0.253007619322075));
#552=CARTESIAN_POINT('Ctrl Pts',(-59.9517941405092,39.6324702221765,0.224171205226606));
#553=CARTESIAN_POINT('Ctrl Pts',(-59.9518286459034,39.5968971760046,0.197704048433176));
#554=CARTESIAN_POINT('Ctrl Pts',(-59.951863148765,39.5613267408618,0.171238834304868));
#555=CARTESIAN_POINT('Ctrl Pts',(-59.9518976516267,39.5239938661909,0.14714280507071));
#556=CARTESIAN_POINT('Ctrl Pts',(-59.9519321544883,39.4852279054136,0.125628537708677));
#557=CARTESIAN_POINT('Ctrl Pts',(-59.9519666656779,39.4464525876819,0.1041090774399));
#558=CARTESIAN_POINT('Ctrl Pts',(-59.9520011768675,39.4062438953569,0.0851728517894929));
#559=CARTESIAN_POINT('Ctrl Pts',(-59.952035688057,39.3649567233463,0.068986998002341));
#560=CARTESIAN_POINT('Ctrl Pts',(-59.9520701929299,39.3236771083143,0.0528041067855042));
#561=CARTESIAN_POINT('Ctrl Pts',(-59.9521046978027,39.2813198394367,0.0393707479900108));
#562=CARTESIAN_POINT('Ctrl Pts',(-59.9521392026756,39.2382586391687,0.0288054454952722));
#563=CARTESIAN_POINT('Ctrl Pts',(-59.9521737125088,39.1951912484938,0.0182386241501514));
#564=CARTESIAN_POINT('Ctrl Pts',(-59.952208222342,39.1514201729067,0.0105407951984956));
#565=CARTESIAN_POINT('Ctrl Pts',(-59.9522427321752,39.1073317197733,0.00577989683893709));
#566=CARTESIAN_POINT('Ctrl Pts',(-59.9522706359996,39.0716828528648,0.00193034848958004));
#567=CARTESIAN_POINT('Ctrl Pts',(-59.9522985398239,39.0358268212974,-3.98082805988773E-18));
#568=CARTESIAN_POINT('Ctrl Pts',(-59.9523264436482,38.9999707097632,0.));
#569=CARTESIAN_POINT('',(-59.9279206020411,0.000100003124170467,1.));
#570=CARTESIAN_POINT('Origin',(-60.0000008940697,20.0000002980232,1.));
#571=CARTESIAN_POINT('',(-59.9297226189493,1.00010008855439,0.));
#572=CARTESIAN_POINT('Ctrl Pts',(-59.9279206020411,0.000100003124171133,
1.));
#573=CARTESIAN_POINT('Ctrl Pts',(-59.9278670594613,0.000100196093372658,
0.955660599683725));
#574=CARTESIAN_POINT('Ctrl Pts',(-59.9278241607233,0.00305368426096417,
0.911321430529696));
#575=CARTESIAN_POINT('Ctrl Pts',(-59.9277918826507,0.00893440896436837,
0.86737371932867));
#576=CARTESIAN_POINT('Ctrl Pts',(-59.92775960584,0.0148149037857694,0.823427726077114));
#577=CARTESIAN_POINT('Ctrl Pts',(-59.9277379487799,0.0236223446478335,0.779873618307151));
#578=CARTESIAN_POINT('Ctrl Pts',(-59.9277267000679,0.0352790265839826,0.737095665853051));
#579=CARTESIAN_POINT('Ctrl Pts',(-59.9277154517568,0.0469352931763479,0.694319237636872));
#580=CARTESIAN_POINT('Ctrl Pts',(-59.9277146107456,0.0614404759958283,0.652319355263445));
#581=CARTESIAN_POINT('Ctrl Pts',(-59.9277237803684,0.0786666090569446,0.611466549587357));
#582=CARTESIAN_POINT('Ctrl Pts',(-59.9277329496961,0.0958921879028262,0.570615058265872));
#583=CARTESIAN_POINT('Ctrl Pts',(-59.9277521284898,0.115838362113931,0.53091099551976));
#584=CARTESIAN_POINT('Ctrl Pts',(-59.9277807410769,0.138329175560455,0.492704615572594));
#585=CARTESIAN_POINT('Ctrl Pts',(-59.9278093618912,0.160826455930675,0.454487249906997));
#586=CARTESIAN_POINT('Ctrl Pts',(-59.9278474212,0.185869606601881,0.417768828311117));
#587=CARTESIAN_POINT('Ctrl Pts',(-59.9278941730453,0.213237581133993,0.382873452620263));
#588=CARTESIAN_POINT('Ctrl Pts',(-59.9279409201645,0.240602789010091,0.347981604537961));
#589=CARTESIAN_POINT('Ctrl Pts',(-59.9279963571296,0.270292064575773,0.314912797237577));
#590=CARTESIAN_POINT('Ctrl Pts',(-59.9280595809435,0.302043404380403,0.28395885971392));
#591=CARTESIAN_POINT('Ctrl Pts',(-59.9281227992417,0.333791974178533,0.253007622630895));
#592=CARTESIAN_POINT('Ctrl Pts',(-59.9281938019162,0.367601916840002,0.22417120855329));
#593=CARTESIAN_POINT('Ctrl Pts',(-59.9282715443266,0.403174916368259,0.197704051736803));
#594=CARTESIAN_POINT('Ctrl Pts',(-59.9283492810307,0.43874530486366,0.171238837590797));
#595=CARTESIAN_POINT('Ctrl Pts',(-59.9284337552058,0.47607812023222,0.147142808297059));
#596=CARTESIAN_POINT('Ctrl Pts',(-59.928523798514,0.514844011126662,0.12562854083122));
#597=CARTESIAN_POINT('Ctrl Pts',(-59.928613863556,0.553619258949023,0.104109080463961));
#598=CARTESIAN_POINT('Ctrl Pts',(-59.9287094990082,0.593827870780877,0.0851728546695313));
#599=CARTESIAN_POINT('Ctrl Pts',(-59.9288094318639,0.635114954001058,0.0689870006917503));
#600=CARTESIAN_POINT('Ctrl Pts',(-59.9289093464285,0.676394480254033,0.0528041092862361));
#601=CARTESIAN_POINT('Ctrl Pts',(-59.9290135552894,0.718751652060791,0.0393707502548199));
#602=CARTESIAN_POINT('Ctrl Pts',(-59.9291207044953,0.761812749423116,0.0288054474773075));
#603=CARTESIAN_POINT('Ctrl Pts',(-59.9292278691047,0.80488003717347,0.0182386258503502));
#604=CARTESIAN_POINT('Ctrl Pts',(-59.9293379732843,0.848651004002364,0.0105407965694612));
#605=CARTESIAN_POINT('Ctrl Pts',(-59.9294496045034,0.89273934513064,0.00577989783519928));
#606=CARTESIAN_POINT('Ctrl Pts',(-59.9295398668412,0.928388124807615,0.00193034882294926));
#607=CARTESIAN_POINT('Ctrl Pts',(-59.9296311260845,0.964244067062526,8.18121218664214E-17));
#608=CARTESIAN_POINT('Ctrl Pts',(-59.9297226189493,1.00010008855439,0.));
#609=CARTESIAN_POINT('Origin',(-60.0000008940697,20.0000002980232,0.));
#610=CARTESIAN_POINT('Origin',(-60.036025947923,1.00010000312417,1.));
#611=CARTESIAN_POINT('',(-60.0720811860982,0.000100003124170467,1.));
#612=CARTESIAN_POINT('',(-60.036025947923,0.000100003124169357,1.));
#613=CARTESIAN_POINT('',(-60.0702791815171,1.00010000312417,0.));
#614=CARTESIAN_POINT('Ctrl Pts',(-60.0720811860982,0.000100003124169135,
1.));
#615=CARTESIAN_POINT('Ctrl Pts',(-60.0720303203039,0.000100003124169135,
0.955660599440838));
#616=CARTESIAN_POINT('Ctrl Pts',(-60.0719794545095,0.00305331732029391,
0.911321430043927));
#617=CARTESIAN_POINT('Ctrl Pts',(-60.0719285887152,0.008933887135675,0.867373718606443));
#618=CARTESIAN_POINT('Ctrl Pts',(-60.0718777249092,0.0148142270755354,0.823427725115243));
#619=CARTESIAN_POINT('Ctrl Pts',(-60.0718268611032,0.0236215321385363,0.779873617112129));
#620=CARTESIAN_POINT('Ctrl Pts',(-60.0717759972972,0.0352780971008158,0.737095664437683));
#621=CARTESIAN_POINT('Ctrl Pts',(-60.0717251353036,0.0469342467249166,0.694319235995891));
#622=CARTESIAN_POINT('Ctrl Pts',(-60.07167427331,0.0614393314003793,0.652319353409859));
#623=CARTESIAN_POINT('Ctrl Pts',(-60.0716234113163,0.0786653845430667,0.611466547540243));
#624=CARTESIAN_POINT('Ctrl Pts',(-60.0715725509591,0.0958908834759627,0.570615056018426));
#625=CARTESIAN_POINT('Ctrl Pts',(-60.0715216906018,0.115836995998689,0.530910993091452));
#626=CARTESIAN_POINT('Ctrl Pts',(-60.0714708302446,0.138327765049093,0.492704612988572));
#627=CARTESIAN_POINT('Ctrl Pts',(-60.0714199552631,0.160825001017187,0.454487247155732));
#628=CARTESIAN_POINT('Ctrl Pts',(-60.0713690802816,0.185868124588904,0.417768825418684));
#629=CARTESIAN_POINT('Ctrl Pts',(-60.0713182053001,0.213236088070521,0.382873449617954));
#630=CARTESIAN_POINT('Ctrl Pts',(-60.0712673354617,0.240601284903067,0.347981601418356));
#631=CARTESIAN_POINT('Ctrl Pts',(-60.0712164656232,0.270290565470438,0.314912794032751));
#632=CARTESIAN_POINT('Ctrl Pts',(-60.0711655957847,0.302041924767867,0.283958856460394));
#633=CARTESIAN_POINT('Ctrl Pts',(-60.0711147303841,0.333790514063863,0.253007619322077));
#634=CARTESIAN_POINT('Ctrl Pts',(-60.0710638649835,0.367600490710803,0.224171205226609));
#635=CARTESIAN_POINT('Ctrl Pts',(-60.071012999583,0.403173536882732,0.197704048433179));
#636=CARTESIAN_POINT('Ctrl Pts',(-60.0709621379159,0.43874397202558,0.171238834304871));
#637=CARTESIAN_POINT('Ctrl Pts',(-60.0709112762488,0.476076846696461,0.147142805070714));
#638=CARTESIAN_POINT('Ctrl Pts',(-60.0708604145817,0.514842807473717,0.125628537708681));
#639=CARTESIAN_POINT('Ctrl Pts',(-60.0708095406381,0.553618125205397,0.104109077439905));
#640=CARTESIAN_POINT('Ctrl Pts',(-60.0707586666945,0.593826817530423,0.0851728517894968));
#641=CARTESIAN_POINT('Ctrl Pts',(-60.0707077927509,0.635113989541026,0.0689869980023448));
#642=CARTESIAN_POINT('Ctrl Pts',(-60.070656928119,0.676393604573059,0.0528041067855083));
#643=CARTESIAN_POINT('Ctrl Pts',(-60.070606063487,0.718750873450617,0.0393707479900149));
#644=CARTESIAN_POINT('Ctrl Pts',(-60.0705551988551,0.761812073718648,0.0288054454952761));
#645=CARTESIAN_POINT('Ctrl Pts',(-60.070504326911,0.804879464393489,0.0182386241501543));
#646=CARTESIAN_POINT('Ctrl Pts',(-60.0704534549669,0.848650539980659,0.0105407951984976));
#647=CARTESIAN_POINT('Ctrl Pts',(-60.0704025830227,0.89273899311398,0.00577989683893843));
#648=CARTESIAN_POINT('Ctrl Pts',(-60.0703614491875,0.928387860022544,0.00193034848958043));
#649=CARTESIAN_POINT('Ctrl Pts',(-60.0703203153523,0.964243891589892,-3.98082805988822E-18));
#650=CARTESIAN_POINT('Ctrl Pts',(-60.0702791815171,1.00010000312417,0.));
#651=CARTESIAN_POINT('',(-60.036025947923,1.00010000312417,0.));
#652=CARTESIAN_POINT('Origin',(-78.9999707097631,20.0245878585395,1.));
#653=CARTESIAN_POINT('',(-79.9999707097631,20.0491403606354,1.));
#654=CARTESIAN_POINT('',(-78.9999707097631,20.0479118609242,0.));
#655=CARTESIAN_POINT('Ctrl Pts',(-79.9999707097631,20.0491403606354,1.));
#656=CARTESIAN_POINT('Ctrl Pts',(-79.9999707097631,20.0491056833575,0.955660599440835));
#657=CARTESIAN_POINT('Ctrl Pts',(-79.997017395567,20.0490710060796,0.911321430043922));
#658=CARTESIAN_POINT('Ctrl Pts',(-79.9911368257516,20.0490363288016,0.867373718606437));
#659=CARTESIAN_POINT('Ctrl Pts',(-79.9852564858117,20.0490016528793,0.823427725115241));
#660=CARTESIAN_POINT('Ctrl Pts',(-79.9764491807488,20.0489669769569,0.779873617112132));
#661=CARTESIAN_POINT('Ctrl Pts',(-79.9647926157865,20.0489323010345,0.737095664437691));
#662=CARTESIAN_POINT('Ctrl Pts',(-79.9531364661624,20.0488976263477,0.694319235995893));
#663=CARTESIAN_POINT('Ctrl Pts',(-79.9386313814869,20.0488629516609,0.652319353409854));
#664=CARTESIAN_POINT('Ctrl Pts',(-79.9214053283442,20.0488282769741,0.611466547540232));
#665=CARTESIAN_POINT('Ctrl Pts',(-79.9041798294113,20.0487936034029,0.57061505601841));
#666=CARTESIAN_POINT('Ctrl Pts',(-79.8842337168886,20.0487589298316,0.530910993091432));
#667=CARTESIAN_POINT('Ctrl Pts',(-79.8617429478382,20.0487242562604,0.492704612988548));
#668=CARTESIAN_POINT('Ctrl Pts',(-79.8392457118701,20.0486895727192,0.454487247155708));
#669=CARTESIAN_POINT('Ctrl Pts',(-79.8142025882984,20.0486548891781,0.417768825418661));
#670=CARTESIAN_POINT('Ctrl Pts',(-79.7868346248167,20.0486202056369,0.382873449617931));
#671=CARTESIAN_POINT('Ctrl Pts',(-79.7594694279842,20.048585525602,0.347981601418334));
#672=CARTESIAN_POINT('Ctrl Pts',(-79.7297801474168,20.048550845567,0.314912794032729));
#673=CARTESIAN_POINT('Ctrl Pts',(-79.6980287881194,20.048516165532,0.283958856460373));
#674=CARTESIAN_POINT('Ctrl Pts',(-79.6662801988234,20.0484814885226,0.253007619322054));
#675=CARTESIAN_POINT('Ctrl Pts',(-79.6324702221765,20.0484468115131,0.224171205226585));
#676=CARTESIAN_POINT('Ctrl Pts',(-79.5968971760045,20.0484121345036,0.197704048433154));
#677=CARTESIAN_POINT('Ctrl Pts',(-79.5613267408617,20.0483774600394,0.171238834304851));
#678=CARTESIAN_POINT('Ctrl Pts',(-79.5239938661908,20.0483427855752,0.147142805070697));
#679=CARTESIAN_POINT('Ctrl Pts',(-79.4852279054136,20.048308111111,0.125628537708669));
#680=CARTESIAN_POINT('Ctrl Pts',(-79.4464525876819,20.0482734282774,0.104109077439892));
#681=CARTESIAN_POINT('Ctrl Pts',(-79.4062438953568,20.0482387454438,0.0851728517894855));
#682=CARTESIAN_POINT('Ctrl Pts',(-79.3649567233462,20.0482040626102,0.0689869980023343));
#683=CARTESIAN_POINT('Ctrl Pts',(-79.3236771083142,20.0481693861248,0.0528041067854978));
#684=CARTESIAN_POINT('Ctrl Pts',(-79.2813198394366,20.0481347096393,0.0393707479900049));
#685=CARTESIAN_POINT('Ctrl Pts',(-79.2382586391686,20.0481000331539,0.0288054454952669));
#686=CARTESIAN_POINT('Ctrl Pts',(-79.1951912484938,20.0480653516834,0.0182386241501473));
#687=CARTESIAN_POINT('Ctrl Pts',(-79.1514201729066,20.048030670213,0.0105407951984925));
#688=CARTESIAN_POINT('Ctrl Pts',(-79.1073317197733,20.0479959887425,0.00577989683893498));
#689=CARTESIAN_POINT('Ctrl Pts',(-79.0716828528647,20.0479679461364,0.00193034848957924));
#690=CARTESIAN_POINT('Ctrl Pts',(-79.0358268212974,20.0479399035303,-3.98082805988705E-18));
#691=CARTESIAN_POINT('Ctrl Pts',(-78.9999707097631,20.0479118609242,0.));
#692=CARTESIAN_POINT('',(-78.9999707097631,19.9520887347669,0.));
#693=CARTESIAN_POINT('',(-78.9999707097631,20.0245878585395,0.));
#694=CARTESIAN_POINT('',(-79.9999707097622,19.9508602350465,1.));
#695=CARTESIAN_POINT('Ctrl Pts',(-78.9999707097631,19.9520887347669,0.));
#696=CARTESIAN_POINT('Ctrl Pts',(-79.0443101103223,19.9520540574887,-4.92266233988605E-18));
#697=CARTESIAN_POINT('Ctrl Pts',(-79.0886492797192,19.9520193802105,0.00295331419612481));
#698=CARTESIAN_POINT('Ctrl Pts',(-79.1325969911567,19.9519847029323,0.00883388401150609));
#699=CARTESIAN_POINT('Ctrl Pts',(-79.1765429846479,19.9519500270097,0.014714223951366));
#700=CARTESIAN_POINT('Ctrl Pts',(-79.220097092651,19.9519153510871,0.0235215290143661));
#701=CARTESIAN_POINT('Ctrl Pts',(-79.2628750453254,19.9518806751645,0.0351780939766442));
#702=CARTESIAN_POINT('Ctrl Pts',(-79.3056514737672,19.9518460004774,0.0468342436007457));
#703=CARTESIAN_POINT('Ctrl Pts',(-79.3476513563533,19.9518113257903,0.0613393282762097));
#704=CARTESIAN_POINT('Ctrl Pts',(-79.3885041622229,19.9517766511033,0.0785653814188988));
#705=CARTESIAN_POINT('Ctrl Pts',(-79.4293556537447,19.9517419775318,0.0957908803517991));
#706=CARTESIAN_POINT('Ctrl Pts',(-79.4690597166717,19.9517073039603,0.115736992874531));
#707=CARTESIAN_POINT('Ctrl Pts',(-79.5072660967746,19.9516726303888,0.138227761924942));
#708=CARTESIAN_POINT('Ctrl Pts',(-79.5454834626074,19.9516379468474,0.160724997893037));
#709=CARTESIAN_POINT('Ctrl Pts',(-79.5822018843445,19.951603263306,0.185768121464755));
#710=CARTESIAN_POINT('Ctrl Pts',(-79.6170972601452,19.9515685797645,0.213136084946373));
#711=CARTESIAN_POINT('Ctrl Pts',(-79.6519891083448,19.9515338997293,0.240501281778921));
#712=CARTESIAN_POINT('Ctrl Pts',(-79.6850579157304,19.9514992196941,0.270190562346294));
#713=CARTESIAN_POINT('Ctrl Pts',(-79.7160118533027,19.9514645396589,0.301941921643725));
#714=CARTESIAN_POINT('Ctrl Pts',(-79.7469630904411,19.9514298626491,0.333690510939722));
#715=CARTESIAN_POINT('Ctrl Pts',(-79.7757995045365,19.9513951856394,0.367500487586665));
#716=CARTESIAN_POINT('Ctrl Pts',(-79.80226666133,19.9513605086297,0.403073533758595));
#717=CARTESIAN_POINT('Ctrl Pts',(-79.8287318754583,19.9513258341652,0.438643968901442));
#718=CARTESIAN_POINT('Ctrl Pts',(-79.8528279046924,19.9512911597008,0.475976843572321));
#719=CARTESIAN_POINT('Ctrl Pts',(-79.8743421720545,19.9512564852363,0.514742804349575));
#720=CARTESIAN_POINT('Ctrl Pts',(-79.8958616323232,19.9512218024025,0.553518122081256));
#721=CARTESIAN_POINT('Ctrl Pts',(-79.9147978579736,19.9511871195686,0.593726814406283));
#722=CARTESIAN_POINT('Ctrl Pts',(-79.9309837117608,19.9511524367348,0.635013986416888));
#723=CARTESIAN_POINT('Ctrl Pts',(-79.9471666029776,19.9511177602491,0.676293601448919));
#724=CARTESIAN_POINT('Ctrl Pts',(-79.9605999617731,19.9510830837634,0.718650870326475));
#725=CARTESIAN_POINT('Ctrl Pts',(-79.9711652642679,19.9510484072777,0.761712070594504));
#726=CARTESIAN_POINT('Ctrl Pts',(-79.981732085613,19.9510137258069,0.804779461269345));
#727=CARTESIAN_POINT('Ctrl Pts',(-79.9894299145646,19.9509790443362,0.848550536856514));
#728=CARTESIAN_POINT('Ctrl Pts',(-79.9941908129242,19.9509443628655,0.892638989989835));
#729=CARTESIAN_POINT('Ctrl Pts',(-79.9980403612735,19.9509163202592,0.92828785689839));
#730=CARTESIAN_POINT('Ctrl Pts',(-79.9999707097631,19.9508882776528,0.964143888465731));
#731=CARTESIAN_POINT('Ctrl Pts',(-79.9999707097631,19.9508602350465,1.));
#732=CARTESIAN_POINT('',(-79.9999707097631,20.0245878585395,1.));
#733=CARTESIAN_POINT('Origin',(-60.0000008940697,20.0000002980232,1.));
#734=CARTESIAN_POINT('Origin',(-60.0000008940697,20.0000002980232,1.));
#735=CARTESIAN_POINT('Origin',(-60.0000008940697,20.0000002980232,0.));
#736=CARTESIAN_POINT('Origin',(-60.0000008940697,20.0000002980232,1.));
#737=CARTESIAN_POINT('',(-60.0488977644046,39.9999707097632,1.));
#738=CARTESIAN_POINT('',(-60.047675340643,38.9999706704441,0.));
#739=CARTESIAN_POINT('Ctrl Pts',(-60.0488977644046,39.9999707097632,1.));
#740=CARTESIAN_POINT('Ctrl Pts',(-60.048934086039,39.9999706209623,0.95566059955261));
#741=CARTESIAN_POINT('Ctrl Pts',(-60.0489631872457,39.9970172267078,0.911321430267468));
#742=CARTESIAN_POINT('Ctrl Pts',(-60.0489850837467,39.9911365856158,0.867373718938798));
#743=CARTESIAN_POINT('Ctrl Pts',(-60.0490069793917,39.9852561744023,0.823427725557879));
#744=CARTESIAN_POINT('Ctrl Pts',(-60.0490216709514,39.976448806847,0.779873617662059));
#745=CARTESIAN_POINT('Ctrl Pts',(-60.0490293018342,39.9647921880554,0.737095665089014));
#746=CARTESIAN_POINT('Ctrl Pts',(-60.0490369324451,39.9531359846046,0.694319236751039));
#747=CARTESIAN_POINT('Ctrl Pts',(-60.0490375030901,39.9386308547651,0.652319354262838));
#748=CARTESIAN_POINT('Ctrl Pts',(-60.0490312828541,39.9214047648453,0.611466548482276));
#749=CARTESIAN_POINT('Ctrl Pts',(-60.0490250628182,39.9041792291378,0.570615057052646));
#750=CARTESIAN_POINT('Ctrl Pts',(-60.0490120526936,39.8842330882271,0.530910994208901));
#751=CARTESIAN_POINT('Ctrl Pts',(-60.0489926429972,39.8617422987463,0.492704614177676));
#752=CARTESIAN_POINT('Ctrl Pts',(-60.0489732277198,39.8392450423451,0.454487248421798));
#753=CARTESIAN_POINT('Ctrl Pts',(-60.0489474096815,39.8142019063025,0.417768826749713));
#754=CARTESIAN_POINT('Ctrl Pts',(-60.0489156949154,39.7868339377355,0.382873450999546));
#755=CARTESIAN_POINT('Ctrl Pts',(-60.0488839833553,39.7594687358208,0.347981602853925));
#756=CARTESIAN_POINT('Ctrl Pts',(-60.0488463768925,39.7297794575549,0.314912795507535));
#757=CARTESIAN_POINT('Ctrl Pts',(-60.0488034880901,39.6980281072275,0.283958857957588));
#758=CARTESIAN_POINT('Ctrl Pts',(-60.0487606030293,39.6662795269039,0.253007620844717));
#759=CARTESIAN_POINT('Ctrl Pts',(-60.0487124373062,39.6324695658963,0.224171206757471));
#760=CARTESIAN_POINT('Ctrl Pts',(-60.04865969957,39.5968965411887,0.197704049953433));
#761=CARTESIAN_POINT('Ctrl Pts',(-60.0486069657047,39.5613261275119,0.171238835816979));
#762=CARTESIAN_POINT('Ctrl Pts',(-60.0485496613627,39.5239932801307,0.147142806555403));
#763=CARTESIAN_POINT('Ctrl Pts',(-60.0484885791055,39.485227351512,0.125628539145601));
#764=CARTESIAN_POINT('Ctrl Pts',(-60.0484274821048,39.446452065951,0.104109078831505));
#765=CARTESIAN_POINT('Ctrl Pts',(-60.0483626063225,39.4062434106672,0.0851728531148223));
#766=CARTESIAN_POINT('Ctrl Pts',(-60.048294815324,39.3649562795161,0.0689869992399474));
#767=CARTESIAN_POINT('Ctrl Pts',(-60.0482270367336,39.3236767053383,0.0528041079362868));
#768=CARTESIAN_POINT('Ctrl Pts',(-60.0481563450347,39.2813194811307,0.0393707490322278));
#769=CARTESIAN_POINT('Ctrl Pts',(-60.0480836587031,39.2382583282177,0.0288054464073634));
#770=CARTESIAN_POINT('Ctrl Pts',(-60.0480109619221,39.1951909849066,0.0182386249325479));
#771=CARTESIAN_POINT('Ctrl Pts',(-60.0479362710339,39.1514199593677,0.010540795829386));
#772=CARTESIAN_POINT('Ctrl Pts',(-60.0478605442522,39.1073315577768,0.00577989729739681));
#773=CARTESIAN_POINT('Ctrl Pts',(-60.0477993133882,39.0716827310104,0.00193034864298983));
#774=CARTESIAN_POINT('Ctrl Pts',(-60.0477374062563,39.0358267405427,8.18121180565582E-17));
#775=CARTESIAN_POINT('Ctrl Pts',(-60.047675340643,38.9999706704441,0.));
#776=CARTESIAN_POINT('Origin',(-60.0000008940697,20.0000002980232,0.));
#777=CARTESIAN_POINT('Origin',(-60.0000008940697,20.0000002980232,1.));
#778=CARTESIAN_POINT('Origin',(-59.9755373667412,38.9999707097632,1.));
#779=CARTESIAN_POINT('',(-59.9755373667412,38.9999707097632,0.));
#780=CARTESIAN_POINT('',(-59.9755373667412,39.9999707097632,1.));
#781=CARTESIAN_POINT('Origin',(-59.9511040237347,39.9999707097632,0.));
#782=CARTESIAN_POINT('',(-60.0488977644046,39.9999707097632,7.));
#783=CARTESIAN_POINT('',(-60.0488977644046,39.9999707097632,0.));
#784=CARTESIAN_POINT('',(-59.9511040237347,39.9999707097632,7.));
#785=CARTESIAN_POINT('',(-59.9755373667412,39.9999707097632,7.));
#786=CARTESIAN_POINT('',(-59.9511040237347,39.9999707097632,0.));
#787=CARTESIAN_POINT('Origin',(-60.0000008940697,20.0000002980232,0.));
#788=CARTESIAN_POINT('',(-79.9999707097631,20.0491403606354,7.));
#789=CARTESIAN_POINT('',(-79.9999707097631,20.0491403606354,0.));
#790=CARTESIAN_POINT('Origin',(-60.0000008940697,20.0000002980232,7.));
#791=CARTESIAN_POINT('Origin',(-79.9999707097631,20.0491403606354,0.));
#792=CARTESIAN_POINT('',(-79.9999707097622,19.9508602350465,7.));
#793=CARTESIAN_POINT('',(-79.9999707097622,19.9508602350465,0.));
#794=CARTESIAN_POINT('',(-79.9999707097631,20.0245878585395,7.));
#795=CARTESIAN_POINT('Origin',(-59.9999707097477,20.0000353564437,0.));
#796=CARTESIAN_POINT('',(-45.0000008940697,20.0000002980232,0.));
#797=CARTESIAN_POINT('Origin',(-60.0000008940697,20.0000002980232,0.));
#798=CARTESIAN_POINT('Origin',(-60.0000008940697,20.0000002980232,1.));
#799=CARTESIAN_POINT('',(-74.0000008940697,20.0000002980232,1.));
#800=CARTESIAN_POINT('',(-46.0000008940697,20.0000002980232,1.));
#801=CARTESIAN_POINT('Origin',(-60.0000008940697,20.0000002980232,1.));
#802=CARTESIAN_POINT('Origin',(-45.0000008940697,20.0000002980232,1.));
#803=CARTESIAN_POINT('Origin',(-60.0000008940697,20.0000002980232,1.));
#804=CARTESIAN_POINT('Origin',(-60.0000008940697,20.0000002980232,0.));
#805=CARTESIAN_POINT('',(-74.0000008940697,20.0000002980232,7.));
#806=CARTESIAN_POINT('',(-46.0000008940697,20.0000002980232,7.));
#807=CARTESIAN_POINT('Origin',(-60.0000008940697,20.0000002980232,7.));
#808=CARTESIAN_POINT('',(-74.0000008940697,20.0000002980232,0.));
#809=CARTESIAN_POINT('Origin',(-60.0000008940697,20.0000002980232,7.));
#810=CARTESIAN_POINT('Origin',(-60.0000008940697,20.0000002980232,7.));
#811=CARTESIAN_POINT('',(-60.0476753444911,38.9999707097632,8.));
#812=CARTESIAN_POINT('Ctrl Pts',(-60.0488977644046,39.9999707097632,7.));
#813=CARTESIAN_POINT('Ctrl Pts',(-60.0488632587432,39.9999707097632,7.04433940055916));
#814=CARTESIAN_POINT('Ctrl Pts',(-60.0488287530818,39.997017395567,7.08867856995608));
#815=CARTESIAN_POINT('Ctrl Pts',(-60.0487942474204,39.9911368257517,7.13262628139356));
#816=CARTESIAN_POINT('Ctrl Pts',(-60.0487597431078,39.9852564858118,7.17657227488476));
#817=CARTESIAN_POINT('Ctrl Pts',(-60.0487252387952,39.9764491807488,7.22012638288787));
#818=CARTESIAN_POINT('Ctrl Pts',(-60.0486907344827,39.9647926157865,7.26290433556231));
#819=CARTESIAN_POINT('Ctrl Pts',(-60.0486562313996,39.9531364661624,7.3056807640041));
#820=CARTESIAN_POINT('Ctrl Pts',(-60.0486217283164,39.938631381487,7.34768064659014));
#821=CARTESIAN_POINT('Ctrl Pts',(-60.0485872252333,39.9214053283443,7.38853345245976));
#822=CARTESIAN_POINT('Ctrl Pts',(-60.0485527232602,39.9041798294114,7.42938494398159));
#823=CARTESIAN_POINT('Ctrl Pts',(-60.0485182212872,39.8842337168886,7.46908900690857));
#824=CARTESIAN_POINT('Ctrl Pts',(-60.0484837193141,39.8617429478382,7.50729538701145));
#825=CARTESIAN_POINT('Ctrl Pts',(-60.0484492074205,39.8392457118701,7.54551275284429));
#826=CARTESIAN_POINT('Ctrl Pts',(-60.0484146955268,39.8142025882984,7.58223117458134));
#827=CARTESIAN_POINT('Ctrl Pts',(-60.0483801836332,39.7868346248168,7.61712655038207));
#828=CARTESIAN_POINT('Ctrl Pts',(-60.0483456752284,39.7594694279843,7.65201839858167));
#829=CARTESIAN_POINT('Ctrl Pts',(-60.0483111668236,39.7297801474169,7.68508720596728));
#830=CARTESIAN_POINT('Ctrl Pts',(-60.0482766584187,39.6980287881195,7.71604114353963));
#831=CARTESIAN_POINT('Ctrl Pts',(-60.0482421530245,39.6662801988235,7.74699238067795));
#832=CARTESIAN_POINT('Ctrl Pts',(-60.0482076476302,39.6324702221765,7.77582879477341));
#833=CARTESIAN_POINT('Ctrl Pts',(-60.0481731422359,39.5968971760046,7.80229595156684));
#834=CARTESIAN_POINT('Ctrl Pts',(-60.0481386393743,39.5613267408617,7.82876116569514));
#835=CARTESIAN_POINT('Ctrl Pts',(-60.0481041365127,39.5239938661909,7.8528571949293));
#836=CARTESIAN_POINT('Ctrl Pts',(-60.048069633651,39.4852279054136,7.87437146229133));
#837=CARTESIAN_POINT('Ctrl Pts',(-60.0480351224614,39.4464525876819,7.8958909225601));
#838=CARTESIAN_POINT('Ctrl Pts',(-60.0480006112719,39.4062438953569,7.91482714821051));
#839=CARTESIAN_POINT('Ctrl Pts',(-60.0479661000823,39.3649567233463,7.93101300199766));
#840=CARTESIAN_POINT('Ctrl Pts',(-60.0479315952094,39.3236771083143,7.9471958932145));
#841=CARTESIAN_POINT('Ctrl Pts',(-60.0478970903366,39.2813198394367,7.96062925200999));
#842=CARTESIAN_POINT('Ctrl Pts',(-60.0478625854637,39.2382586391687,7.97119455450473));
#843=CARTESIAN_POINT('Ctrl Pts',(-60.0478280756305,39.1951912484938,7.98176137584985));
#844=CARTESIAN_POINT('Ctrl Pts',(-60.0477935657973,39.1514201729067,7.98945920480151));
#845=CARTESIAN_POINT('Ctrl Pts',(-60.0477590559641,39.1073317197733,7.99422010316106));
#846=CARTESIAN_POINT('Ctrl Pts',(-60.0477311521398,39.0716828528648,7.99806965151042));
#847=CARTESIAN_POINT('Ctrl Pts',(-60.0477032483155,39.0358268212974,8.));
#848=CARTESIAN_POINT('Ctrl Pts',(-60.0476753444911,38.9999707097632,8.));
#849=CARTESIAN_POINT('',(-78.999970670052,20.0479118570183,8.));
#850=CARTESIAN_POINT('Ctrl Pts',(-79.9999707097631,20.0491403606354,7.));
#851=CARTESIAN_POINT('Ctrl Pts',(-79.9999706200768,20.0491768629171,7.04433940044628));
#852=CARTESIAN_POINT('Ctrl Pts',(-79.9970172250239,20.0492061088597,7.0886785697303));
#853=CARTESIAN_POINT('Ctrl Pts',(-79.9911365832211,20.0492281142635,7.13262628105789));
#854=CARTESIAN_POINT('Ctrl Pts',(-79.9852561712968,20.049250118807,7.17657227443771));
#855=CARTESIAN_POINT('Ctrl Pts',(-79.9764488031184,20.0492648834352,7.22012638233246));
#856=CARTESIAN_POINT('Ctrl Pts',(-79.9647921837901,20.0492725522697,7.26290433490449));
#857=CARTESIAN_POINT('Ctrl Pts',(-79.9531359798026,20.0492802208309,7.30568076324143));
#858=CARTESIAN_POINT('Ctrl Pts',(-79.9386308495126,20.0492807943129,7.34768064572865));
#859=CARTESIAN_POINT('Ctrl Pts',(-79.9214047592261,20.0492745431389,7.38853345150832));
#860=CARTESIAN_POINT('Ctrl Pts',(-79.9041792231519,20.0492682921661,7.42938494293703));
#861=CARTESIAN_POINT('Ctrl Pts',(-79.8842330819581,20.0492552173335,7.46908900577994));
#862=CARTESIAN_POINT('Ctrl Pts',(-79.8617422922736,20.0492357111004,7.50729538581045));
#863=CARTESIAN_POINT('Ctrl Pts',(-79.8392450356686,20.0492161992586,7.54551275156556));
#864=CARTESIAN_POINT('Ctrl Pts',(-79.8142018995017,20.0491902528112,7.582231173237));
#865=CARTESIAN_POINT('Ctrl Pts',(-79.786833930884,20.0491583803082,7.61712654898666));
#866=CARTESIAN_POINT('Ctrl Pts',(-79.7594687289186,20.0491265110272,7.65201839713174));
#867=CARTESIAN_POINT('Ctrl Pts',(-79.7297794506757,20.0490887175247,7.68508720447774));
#868=CARTESIAN_POINT('Ctrl Pts',(-79.6980281004377,20.0490456154105,7.71604114202746));
#869=CARTESIAN_POINT('Ctrl Pts',(-79.6662795202036,20.0490025170565,7.74699237914008));
#870=CARTESIAN_POINT('Ctrl Pts',(-79.6324695593519,20.0489541117765,7.77582879322724));
#871=CARTESIAN_POINT('Ctrl Pts',(-79.5968965348584,20.0489011117441,7.80229595003139));
#872=CARTESIAN_POINT('Ctrl Pts',(-79.5613261213957,20.0488481156018,7.82876116416792));
#873=CARTESIAN_POINT('Ctrl Pts',(-79.5239932742865,20.0487905262513,7.85285719342977));
#874=CARTESIAN_POINT('Ctrl Pts',(-79.4852273459885,20.0487291401957,7.87437146084005));
#875=CARTESIAN_POINT('Ctrl Pts',(-79.4464520607484,20.0486677393235,7.8958909211546));
#876=CARTESIAN_POINT('Ctrl Pts',(-79.406243405834,20.0486025408755,7.91482714687195));
#877=CARTESIAN_POINT('Ctrl Pts',(-79.3649562750903,20.0485344127123,7.9310130007477));
#878=CARTESIAN_POINT('Ctrl Pts',(-79.3236767013199,20.0484662970189,7.94719589205223));
#879=CARTESIAN_POINT('Ctrl Pts',(-79.2813194775577,20.0483952537285,7.96062925095737));
#880=CARTESIAN_POINT('Ctrl Pts',(-79.238258325117,20.0483222058848,7.97119455358353));
#881=CARTESIAN_POINT('Ctrl Pts',(-79.1951909822781,20.0482491475399,7.98176137505964));
#882=CARTESIAN_POINT('Ctrl Pts',(-79.1514199572383,20.0481740851699,7.98945920416432));
#883=CARTESIAN_POINT('Ctrl Pts',(-79.1073315561614,20.0480979817543,7.99422010269803));
#884=CARTESIAN_POINT('Ctrl Pts',(-79.0716827297953,20.0480364463531,7.99806965135548));
#885=CARTESIAN_POINT('Ctrl Pts',(-79.0358267397375,20.0479742313205,8.));
#886=CARTESIAN_POINT('Ctrl Pts',(-78.999970670052,20.0479118570183,8.));
#887=CARTESIAN_POINT('Origin',(-60.0000008940697,20.0000002980232,8.));
#888=CARTESIAN_POINT('Origin',(-78.9999707097631,20.0245878585395,7.));
#889=CARTESIAN_POINT('',(-78.9999707097631,19.9520887347669,8.));
#890=CARTESIAN_POINT('Ctrl Pts',(-79.9999707097631,19.9508602350465,7.));
#891=CARTESIAN_POINT('Ctrl Pts',(-79.9999707097631,19.9508949123247,7.04433940055917));
#892=CARTESIAN_POINT('Ctrl Pts',(-79.997017395567,19.9509295896029,7.08867856995608));
#893=CARTESIAN_POINT('Ctrl Pts',(-79.9911368257516,19.9509642668811,7.13262628139356));
#894=CARTESIAN_POINT('Ctrl Pts',(-79.9852564858117,19.9509989428037,7.17657227488476));
#895=CARTESIAN_POINT('Ctrl Pts',(-79.9764491807488,19.9510336187263,7.22012638288787));
#896=CARTESIAN_POINT('Ctrl Pts',(-79.9647926157865,19.9510682946489,7.26290433556231));
#897=CARTESIAN_POINT('Ctrl Pts',(-79.9531364661624,19.951102969336,7.3056807640041));
#898=CARTESIAN_POINT('Ctrl Pts',(-79.9386313814869,19.9511376440231,7.34768064659014));
#899=CARTESIAN_POINT('Ctrl Pts',(-79.9214053283442,19.9511723187102,7.38853345245976));
#900=CARTESIAN_POINT('Ctrl Pts',(-79.9041798294113,19.9512069922816,7.42938494398157));
#901=CARTESIAN_POINT('Ctrl Pts',(-79.8842337168886,19.9512416658531,7.46908900690853));
#902=CARTESIAN_POINT('Ctrl Pts',(-79.8617429478382,19.9512763394246,7.50729538701141));
#903=CARTESIAN_POINT('Ctrl Pts',(-79.8392457118701,19.951311022966,7.54551275284425));
#904=CARTESIAN_POINT('Ctrl Pts',(-79.8142025882984,19.9513457065075,7.58223117458129));
#905=CARTESIAN_POINT('Ctrl Pts',(-79.7868346248168,19.9513803900489,7.61712655038203));
#906=CARTESIAN_POINT('Ctrl Pts',(-79.7594694279842,19.9514150700841,7.65201839858162));
#907=CARTESIAN_POINT('Ctrl Pts',(-79.7297801474169,19.9514497501193,7.68508720596723));
#908=CARTESIAN_POINT('Ctrl Pts',(-79.6980287881194,19.9514844301545,7.71604114353959));
#909=CARTESIAN_POINT('Ctrl Pts',(-79.6662801988234,19.9515191071643,7.74699238067791));
#910=CARTESIAN_POINT('Ctrl Pts',(-79.6324702221765,19.951553784174,7.77582879477338));
#911=CARTESIAN_POINT('Ctrl Pts',(-79.5968971760046,19.9515884611837,7.80229595156681));
#912=CARTESIAN_POINT('Ctrl Pts',(-79.5613267408617,19.9516231356482,7.82876116569512));
#913=CARTESIAN_POINT('Ctrl Pts',(-79.5239938661908,19.9516578101126,7.85285719492928));
#914=CARTESIAN_POINT('Ctrl Pts',(-79.4852279054136,19.9516924845771,7.87437146229131));
#915=CARTESIAN_POINT('Ctrl Pts',(-79.4464525876819,19.951727167411,7.89589092256009));
#916=CARTESIAN_POINT('Ctrl Pts',(-79.4062438953569,19.9517618502448,7.9148271482105));
#917=CARTESIAN_POINT('Ctrl Pts',(-79.3649567233463,19.9517965330787,7.93101300199765));
#918=CARTESIAN_POINT('Ctrl Pts',(-79.3236771083142,19.9518312095644,7.94719589321449));
#919=CARTESIAN_POINT('Ctrl Pts',(-79.2813198394367,19.9518658860501,7.96062925200999));
#920=CARTESIAN_POINT('Ctrl Pts',(-79.2382586391686,19.9519005625357,7.97119455450472));
#921=CARTESIAN_POINT('Ctrl Pts',(-79.1951912484938,19.9519352440065,7.98176137584985));
#922=CARTESIAN_POINT('Ctrl Pts',(-79.1514201729066,19.9519699254772,7.9894592048015));
#923=CARTESIAN_POINT('Ctrl Pts',(-79.1073317197733,19.9520046069479,7.99422010316106));
#924=CARTESIAN_POINT('Ctrl Pts',(-79.0716828528648,19.9520326495542,7.99806965151042));
#925=CARTESIAN_POINT('Ctrl Pts',(-79.0358268212974,19.9520606921606,8.));
#926=CARTESIAN_POINT('Ctrl Pts',(-78.9999707097631,19.9520887347669,8.));
#927=CARTESIAN_POINT('',(-78.9999707097631,20.0245878585395,8.));
#928=CARTESIAN_POINT('Origin',(-60.0000008940697,20.0000002980232,7.));
#929=CARTESIAN_POINT('',(-60.0720811860982,0.000100003124170467,7.));
#930=CARTESIAN_POINT('',(-60.07027916919,1.00010008855439,8.));
#931=CARTESIAN_POINT('Ctrl Pts',(-60.0720811860982,0.00010000312416758,
7.));
#932=CARTESIAN_POINT('Ctrl Pts',(-60.0721347286781,0.000100196093369105,
7.04433940031628));
#933=CARTESIAN_POINT('Ctrl Pts',(-60.0721776274161,0.00305368426096067,
7.08867856947031));
#934=CARTESIAN_POINT('Ctrl Pts',(-60.0722099054886,0.00893440896436482,
7.13262628067133));
#935=CARTESIAN_POINT('Ctrl Pts',(-60.0722421822994,0.0148149037857661,7.17657227392289));
#936=CARTESIAN_POINT('Ctrl Pts',(-60.0722638393595,0.0236223446478305,7.22012638169285));
#937=CARTESIAN_POINT('Ctrl Pts',(-60.0722750880714,0.0352790265839803,7.26290433414695));
#938=CARTESIAN_POINT('Ctrl Pts',(-60.0722863363826,0.0469352931763458,7.30568076236313));
#939=CARTESIAN_POINT('Ctrl Pts',(-60.0722871773937,0.0614404759958265,7.34768064473656));
#940=CARTESIAN_POINT('Ctrl Pts',(-60.072278007771,0.0786666090569429,7.38853345041265));
#941=CARTESIAN_POINT('Ctrl Pts',(-60.0722688384432,0.0958921879028233,7.42938494173413));
#942=CARTESIAN_POINT('Ctrl Pts',(-60.0722496596496,0.115838362113926,7.46908900448024));
#943=CARTESIAN_POINT('Ctrl Pts',(-60.0722210470624,0.138329175560449,7.5072953844274));
#944=CARTESIAN_POINT('Ctrl Pts',(-60.0721924262482,0.160826455930669,7.545512750093));
#945=CARTESIAN_POINT('Ctrl Pts',(-60.0721543669393,0.185869606601876,7.58223117168888));
#946=CARTESIAN_POINT('Ctrl Pts',(-60.072107615094,0.213237581133989,7.61712654737974));
#947=CARTESIAN_POINT('Ctrl Pts',(-60.0720608679749,0.240602789010088,7.65201839546204));
#948=CARTESIAN_POINT('Ctrl Pts',(-60.0720054310097,0.270292064575772,7.68508720276243));
#949=CARTESIAN_POINT('Ctrl Pts',(-60.0719422071958,0.302043404380404,7.71604114028609));
#950=CARTESIAN_POINT('Ctrl Pts',(-60.0718789888976,0.333791974178529,7.74699237736911));
#951=CARTESIAN_POINT('Ctrl Pts',(-60.0718079862231,0.367601916839992,7.77582879144671));
#952=CARTESIAN_POINT('Ctrl Pts',(-60.0717302438128,0.403174916368243,7.80229594826319));
#953=CARTESIAN_POINT('Ctrl Pts',(-60.0716525071086,0.438745304863643,7.8287611624092));
#954=CARTESIAN_POINT('Ctrl Pts',(-60.0715680329336,0.476078120232203,7.85285719170293));
#955=CARTESIAN_POINT('Ctrl Pts',(-60.0714779896254,0.514844011126645,7.87437145916877));
#956=CARTESIAN_POINT('Ctrl Pts',(-60.0713879245834,0.553619258949005,7.89589091953603));
#957=CARTESIAN_POINT('Ctrl Pts',(-60.0712922891312,0.593827870780859,7.91482714533046));
#958=CARTESIAN_POINT('Ctrl Pts',(-60.0711923562754,0.63511495400104,7.93101299930824));
#959=CARTESIAN_POINT('Ctrl Pts',(-60.0710924417108,0.676394480254019,7.94719589071376));
#960=CARTESIAN_POINT('Ctrl Pts',(-60.0709882328499,0.718751652060782,7.96062924974518));
#961=CARTESIAN_POINT('Ctrl Pts',(-60.0708810836441,0.761812749423113,7.97119455252269));
#962=CARTESIAN_POINT('Ctrl Pts',(-60.0707739190347,0.804880037173466,7.98176137414965));
#963=CARTESIAN_POINT('Ctrl Pts',(-60.0706638148551,0.848651004002359,7.98945920343054));
#964=CARTESIAN_POINT('Ctrl Pts',(-60.0705521836359,0.892739345130635,7.9942201021648));
#965=CARTESIAN_POINT('Ctrl Pts',(-60.0704619212982,0.928388124807611,7.99806965117705));
#966=CARTESIAN_POINT('Ctrl Pts',(-60.0703706620548,0.964244067062524,8.));
#967=CARTESIAN_POINT('Ctrl Pts',(-60.07027916919,1.00010008855439,8.));
#968=CARTESIAN_POINT('Origin',(-60.0000008940697,20.0000002980232,8.));
#969=CARTESIAN_POINT('Origin',(-60.0000008940697,20.0000002980232,7.));
#970=CARTESIAN_POINT('Origin',(-60.036025947923,1.00010000312417,7.));
#971=CARTESIAN_POINT('',(-59.9279206020411,0.000100003124170467,7.));
#972=CARTESIAN_POINT('',(-59.9297226066222,1.00010000312417,8.));
#973=CARTESIAN_POINT('Ctrl Pts',(-59.9279206020411,0.000100003124169135,
7.));
#974=CARTESIAN_POINT('Ctrl Pts',(-59.9279714678355,0.000100003124169135,
7.04433940055916));
#975=CARTESIAN_POINT('Ctrl Pts',(-59.9280223336298,0.00305331732029372,
7.08867856995607));
#976=CARTESIAN_POINT('Ctrl Pts',(-59.9280731994242,0.00893388713567456,
7.13262628139355));
#977=CARTESIAN_POINT('Ctrl Pts',(-59.9281240632302,0.0148142270755343,7.17657227488475));
#978=CARTESIAN_POINT('Ctrl Pts',(-59.9281749270361,0.0236215321385344,7.22012638288786));
#979=CARTESIAN_POINT('Ctrl Pts',(-59.9282257908421,0.0352780971008123,7.2629043355623));
#980=CARTESIAN_POINT('Ctrl Pts',(-59.9282766528357,0.046934246724914,7.3056807640041));
#981=CARTESIAN_POINT('Ctrl Pts',(-59.9283275148294,0.0614393314003783,7.34768064659014));
#982=CARTESIAN_POINT('Ctrl Pts',(-59.928378376823,0.0786653845430679,7.38853345245976));
#983=CARTESIAN_POINT('Ctrl Pts',(-59.9284292371803,0.0958908834759652,7.42938494398158));
#984=CARTESIAN_POINT('Ctrl Pts',(-59.9284800975375,0.115836995998693,7.46908900690856));
#985=CARTESIAN_POINT('Ctrl Pts',(-59.9285309578948,0.138327765049099,7.50729538701144));
#986=CARTESIAN_POINT('Ctrl Pts',(-59.9285818328763,0.160825001017194,7.54551275284428));
#987=CARTESIAN_POINT('Ctrl Pts',(-59.9286327078577,0.185868124588911,7.58223117458133));
#988=CARTESIAN_POINT('Ctrl Pts',(-59.9286835828392,0.213236088070529,7.61712655038206));
#989=CARTESIAN_POINT('Ctrl Pts',(-59.9287344526777,0.240601284903077,7.65201839858166));
#990=CARTESIAN_POINT('Ctrl Pts',(-59.9287853225162,0.270290565470449,7.68508720596726));
#991=CARTESIAN_POINT('Ctrl Pts',(-59.9288361923546,0.30204192476788,7.71604114353962));
#992=CARTESIAN_POINT('Ctrl Pts',(-59.9288870577552,0.333790514063875,7.74699238067794));
#993=CARTESIAN_POINT('Ctrl Pts',(-59.9289379231558,0.367600490710814,7.7758287947734));
#994=CARTESIAN_POINT('Ctrl Pts',(-59.9289887885564,0.403173536882742,7.80229595156683));
#995=CARTESIAN_POINT('Ctrl Pts',(-59.9290396502235,0.438743972025583,7.82876116569513));
#996=CARTESIAN_POINT('Ctrl Pts',(-59.9290905118906,0.476076846696457,7.85285719492928));
#997=CARTESIAN_POINT('Ctrl Pts',(-59.9291413735577,0.514842807473704,7.87437146229131));
#998=CARTESIAN_POINT('Ctrl Pts',(-59.9291922475013,0.553618125205384,7.89589092256009));
#999=CARTESIAN_POINT('Ctrl Pts',(-59.9292431214449,0.59382681753041,7.9148271482105));
#1000=CARTESIAN_POINT('Ctrl Pts',(-59.9292939953885,0.635113989541013,7.93101300199765));
#1001=CARTESIAN_POINT('Ctrl Pts',(-59.9293448600204,0.676393604573048,7.94719589321449));
#1002=CARTESIAN_POINT('Ctrl Pts',(-59.9293957246523,0.718750873450608,7.96062925200998));
#1003=CARTESIAN_POINT('Ctrl Pts',(-59.9294465892842,0.761812073718641,7.97119455450472));
#1004=CARTESIAN_POINT('Ctrl Pts',(-59.9294974612283,0.80487946439348,7.98176137584984));
#1005=CARTESIAN_POINT('Ctrl Pts',(-59.9295483331725,0.848650539980649,7.9894592048015));
#1006=CARTESIAN_POINT('Ctrl Pts',(-59.9295992051166,0.892738993113969,7.99422010316106));
#1007=CARTESIAN_POINT('Ctrl Pts',(-59.9296403389518,0.928387860022536,7.99806965151042));
#1008=CARTESIAN_POINT('Ctrl Pts',(-59.929681472787,0.964243891589888,8.));
#1009=CARTESIAN_POINT('Ctrl Pts',(-59.9297226066222,1.00010000312417,8.));
#1010=CARTESIAN_POINT('',(-60.036025947923,1.00010000312417,8.));
#1011=CARTESIAN_POINT('',(-60.036025947923,0.000100003124169357,7.));
#1012=CARTESIAN_POINT('Origin',(-60.0000008940697,20.0000002980232,7.));
#1013=CARTESIAN_POINT('',(-59.9523264474964,38.9999706704441,8.));
#1014=CARTESIAN_POINT('Ctrl Pts',(-59.9511040237347,39.9999707097632,7.));
#1015=CARTESIAN_POINT('Ctrl Pts',(-59.9510677021003,39.9999706209623,7.04433940044739));
#1016=CARTESIAN_POINT('Ctrl Pts',(-59.9510386008936,39.9970172267078,7.08867856973253));
#1017=CARTESIAN_POINT('Ctrl Pts',(-59.9510167043927,39.9911365856157,7.1326262810612));
#1018=CARTESIAN_POINT('Ctrl Pts',(-59.9509948087477,39.9852561744022,7.17657227444212));
#1019=CARTESIAN_POINT('Ctrl Pts',(-59.9509801171879,39.976448806847,7.22012638233794));
#1020=CARTESIAN_POINT('Ctrl Pts',(-59.9509724863051,39.9647921880554,7.26290433491098));
#1021=CARTESIAN_POINT('Ctrl Pts',(-59.9509648556942,39.9531359846046,7.30568076324895));
#1022=CARTESIAN_POINT('Ctrl Pts',(-59.9509642850492,39.938630854765,7.34768064573715));
#1023=CARTESIAN_POINT('Ctrl Pts',(-59.9509705052852,39.9214047648453,7.38853345151771));
#1024=CARTESIAN_POINT('Ctrl Pts',(-59.9509767253211,39.9041792291378,7.42938494294733));
#1025=CARTESIAN_POINT('Ctrl Pts',(-59.9509897354457,39.8842330882271,7.46908900579107));
#1026=CARTESIAN_POINT('Ctrl Pts',(-59.9510091451421,39.8617422987463,7.50729538582229));
#1027=CARTESIAN_POINT('Ctrl Pts',(-59.9510285604195,39.8392450423451,7.54551275157817));
#1028=CARTESIAN_POINT('Ctrl Pts',(-59.9510543784578,39.8142019063026,7.58223117325026));
#1029=CARTESIAN_POINT('Ctrl Pts',(-59.9510860932239,39.7868339377355,7.61712654900043));
#1030=CARTESIAN_POINT('Ctrl Pts',(-59.951117804784,39.7594687358208,7.65201839714605));
#1031=CARTESIAN_POINT('Ctrl Pts',(-59.9511554112469,39.729779457555,7.68508720449244));
#1032=CARTESIAN_POINT('Ctrl Pts',(-59.9511983000493,39.6980281072276,7.71604114204239));
#1033=CARTESIAN_POINT('Ctrl Pts',(-59.95124118511,39.6662795269039,7.74699237915526));
#1034=CARTESIAN_POINT('Ctrl Pts',(-59.9512893508331,39.6324695658963,7.77582879324251));
#1035=CARTESIAN_POINT('Ctrl Pts',(-59.9513420885693,39.5968965411887,7.80229595004655));
#1036=CARTESIAN_POINT('Ctrl Pts',(-59.9513948224346,39.561326127512,7.828761164183));
#1037=CARTESIAN_POINT('Ctrl Pts',(-59.9514521267766,39.5239932801307,7.85285719344458));
#1038=CARTESIAN_POINT('Ctrl Pts',(-59.9515132090339,39.485227351512,7.87437146085438));
#1039=CARTESIAN_POINT('Ctrl Pts',(-59.9515743060345,39.4464520659511,7.89589092116848));
#1040=CARTESIAN_POINT('Ctrl Pts',(-59.9516391818168,39.4062434106673,7.91482714688516));
#1041=CARTESIAN_POINT('Ctrl Pts',(-59.9517069728153,39.3649562795161,7.93101300076004));
#1042=CARTESIAN_POINT('Ctrl Pts',(-59.9517747514058,39.3236767053384,7.9471958920637));
#1043=CARTESIAN_POINT('Ctrl Pts',(-59.9518454431046,39.2813194811307,7.96062925096777));
#1044=CARTESIAN_POINT('Ctrl Pts',(-59.9519181294363,39.2382583282177,7.97119455359263));
#1045=CARTESIAN_POINT('Ctrl Pts',(-59.9519908262172,39.1951909849066,7.98176137506745));
#1046=CARTESIAN_POINT('Ctrl Pts',(-59.9520655171054,39.1514199593677,7.98945920417061));
#1047=CARTESIAN_POINT('Ctrl Pts',(-59.9521412438871,39.1073315577768,7.9942201027026));
#1048=CARTESIAN_POINT('Ctrl Pts',(-59.9522024747511,39.0716827310104,7.99806965135701));
#1049=CARTESIAN_POINT('Ctrl Pts',(-59.952264381883,39.0358267405428,8.));
#1050=CARTESIAN_POINT('Ctrl Pts',(-59.9523264474964,38.9999706704441,8.));
#1051=CARTESIAN_POINT('Origin',(-60.0000008940697,20.0000002980232,8.));
#1052=CARTESIAN_POINT('Origin',(-60.0000008940697,20.0000002980232,7.));
#1053=CARTESIAN_POINT('Origin',(-59.9755373667412,38.9999707097632,7.));
#1054=CARTESIAN_POINT('',(-59.9755373667412,38.9999707097632,8.));
#1055=CARTESIAN_POINT('Origin',(-60.0000008940697,20.0000002980232,0.));
#1056=CARTESIAN_POINT('',(-60.0720811860982,0.000100003124170467,0.));
#1057=CARTESIAN_POINT('Origin',(-59.9999707097477,20.0000353564437,8.));
#1058=CARTESIAN_POINT('',(-45.0000008940697,20.0000002980232,8.));
#1059=CARTESIAN_POINT('Origin',(-60.0000008940697,20.0000002980232,8.));
#1060=CARTESIAN_POINT('Origin',(-60.0000008940697,20.0000002980232,7.));
#1061=CARTESIAN_POINT('Origin',(-45.0000008940697,20.0000002980232,7.));
#1062=CARTESIAN_POINT('Origin',(-60.0000008940697,20.0000002980232,0.));
#1063=CARTESIAN_POINT('',(-59.9279206020411,0.000100003124170467,0.));
#1064=CARTESIAN_POINT('Origin',(-60.0720811860982,0.000100003124169357,
0.));
#1065=UNCERTAINTY_MEASURE_WITH_UNIT(LENGTH_MEASURE(0.01),#1069,
'DISTANCE_ACCURACY_VALUE',
'Maximum model space distance between geometric entities at asserted c
onnectivities');
#1066=UNCERTAINTY_MEASURE_WITH_UNIT(LENGTH_MEASURE(0.01),#1069,
'DISTANCE_ACCURACY_VALUE',
'Maximum model space distance between geometric entities at asserted c
onnectivities');
#1067=(
GEOMETRIC_REPRESENTATION_CONTEXT(3)
GLOBAL_UNCERTAINTY_ASSIGNED_CONTEXT((#1065))
GLOBAL_UNIT_ASSIGNED_CONTEXT((#1069,#1071,#1072))
REPRESENTATION_CONTEXT('','3D')
);
#1068=(
GEOMETRIC_REPRESENTATION_CONTEXT(3)
GLOBAL_UNCERTAINTY_ASSIGNED_CONTEXT((#1066))
GLOBAL_UNIT_ASSIGNED_CONTEXT((#1069,#1071,#1072))
REPRESENTATION_CONTEXT('','3D')
);
#1069=(
LENGTH_UNIT()
NAMED_UNIT(*)
SI_UNIT(.MILLI.,.METRE.)
);
#1070=(
LENGTH_UNIT()
NAMED_UNIT(*)
SI_UNIT($,.METRE.)
);
#1071=(
NAMED_UNIT(*)
PLANE_ANGLE_UNIT()
SI_UNIT($,.RADIAN.)
);
#1072=(
NAMED_UNIT(*)
SI_UNIT($,.STERADIAN.)
SOLID_ANGLE_UNIT()
);
#1073=SHAPE_DEFINITION_REPRESENTATION(#1074,#1075);
#1074=PRODUCT_DEFINITION_SHAPE('',$,#1077);
#1075=SHAPE_REPRESENTATION('',(#377),#1067);
#1076=PRODUCT_DEFINITION_CONTEXT('part definition',#1081,'design');
#1077=PRODUCT_DEFINITION('O','O',#1078,#1076);
#1078=PRODUCT_DEFINITION_FORMATION('',$,#1083);
#1079=PRODUCT_RELATED_PRODUCT_CATEGORY('O','O',(#1083));
#1080=APPLICATION_PROTOCOL_DEFINITION('international standard',
'automotive_design',2009,#1081);
#1081=APPLICATION_CONTEXT(
'Core Data for Automotive Mechanical Design Process');
#1082=PRODUCT_CONTEXT('part definition',#1081,'mechanical');
#1083=PRODUCT('O','O',$,(#1082));
#1084=PRESENTATION_STYLE_ASSIGNMENT((#1085));
#1085=SURFACE_STYLE_USAGE(.BOTH.,#1086);
#1086=SURFACE_SIDE_STYLE('',(#1087));
#1087=SURFACE_STYLE_FILL_AREA(#1088);
#1088=FILL_AREA_STYLE('Steel - Satin',(#1089));
#1089=FILL_AREA_STYLE_COLOUR('Steel - Satin',#1090);
#1090=COLOUR_RGB('Steel - Satin',0.627450980392157,0.627450980392157,0.627450980392157);
ENDSEC;
END-ISO-10303-21;
