ISO-10303-21;
HEADER;
/* Generated by software containing ST-Developer
 * from STEP Tools, Inc. (www.steptools.com) 
 */

FILE_DESCRIPTION(
/* description */ (''),
/* implementation_level */ '2;1');

FILE_NAME(
/* name */ 'X.step',
/* time_stamp */ '2026-08-27T00:44:55+09:00',
/* author */ (''),
/* organization */ (''),
/* preprocessor_version */ 'ST-DEVELOPER v20.1',
/* originating_system */ 'Autodesk Translation Framework v15.8.0.0',
/* authorisation */ '');

FILE_SCHEMA (('AUTOMOTIVE_DESIGN { 1 0 10303 214 3 1 1 }'));
ENDSEC;

DATA;
#10=MECHANICAL_DESIGN_GEOMETRIC_PRESENTATION_REPRESENTATION('',(#13),#1063);
#11=SHAPE_REPRESENTATION_RELATIONSHIP('SRR','None',#1070,#12);
#12=ADVANCED_BREP_SHAPE_REPRESENTATION('',(#14),#1062);
#13=STYLED_ITEM('',(#1079),#14);
#14=MANIFOLD_SOLID_BREP('X',#595);
#15=PLANE('',#643);
#16=PLANE('',#644);
#17=PLANE('',#647);
#18=PLANE('',#648);
#19=PLANE('',#649);
#20=PLANE('',#680);
#21=PLANE('',#682);
#22=PLANE('',#683);
#23=PLANE('',#685);
#24=PLANE('',#686);
#25=TOROIDAL_SURFACE('',#612,3.,1.);
#26=TOROIDAL_SURFACE('',#620,3.,1.);
#27=TOROIDAL_SURFACE('',#628,3.,1.);
#28=TOROIDAL_SURFACE('',#636,3.,1.);
#29=TOROIDAL_SURFACE('',#659,3.,1.);
#30=TOROIDAL_SURFACE('',#667,3.,1.);
#31=TOROIDAL_SURFACE('',#672,3.,1.);
#32=TOROIDAL_SURFACE('',#676,3.,1.);
#33=FACE_OUTER_BOUND('',#71,.T.);
#34=FACE_OUTER_BOUND('',#72,.T.);
#35=FACE_OUTER_BOUND('',#73,.T.);
#36=FACE_OUTER_BOUND('',#74,.T.);
#37=FACE_OUTER_BOUND('',#75,.T.);
#38=FACE_OUTER_BOUND('',#76,.T.);
#39=FACE_OUTER_BOUND('',#77,.T.);
#40=FACE_OUTER_BOUND('',#78,.T.);
#41=FACE_OUTER_BOUND('',#79,.T.);
#42=FACE_OUTER_BOUND('',#80,.T.);
#43=FACE_OUTER_BOUND('',#81,.T.);
#44=FACE_OUTER_BOUND('',#82,.T.);
#45=FACE_OUTER_BOUND('',#83,.T.);
#46=FACE_OUTER_BOUND('',#84,.T.);
#47=FACE_OUTER_BOUND('',#85,.T.);
#48=FACE_OUTER_BOUND('',#86,.T.);
#49=FACE_OUTER_BOUND('',#87,.T.);
#50=FACE_OUTER_BOUND('',#88,.T.);
#51=FACE_OUTER_BOUND('',#89,.T.);
#52=FACE_OUTER_BOUND('',#90,.T.);
#53=FACE_OUTER_BOUND('',#91,.T.);
#54=FACE_OUTER_BOUND('',#92,.T.);
#55=FACE_OUTER_BOUND('',#93,.T.);
#56=FACE_OUTER_BOUND('',#94,.T.);
#57=FACE_OUTER_BOUND('',#95,.T.);
#58=FACE_OUTER_BOUND('',#96,.T.);
#59=FACE_OUTER_BOUND('',#97,.T.);
#60=FACE_OUTER_BOUND('',#98,.T.);
#61=FACE_OUTER_BOUND('',#99,.T.);
#62=FACE_OUTER_BOUND('',#100,.T.);
#63=FACE_OUTER_BOUND('',#101,.T.);
#64=FACE_OUTER_BOUND('',#102,.T.);
#65=FACE_OUTER_BOUND('',#103,.T.);
#66=FACE_OUTER_BOUND('',#104,.T.);
#67=FACE_OUTER_BOUND('',#105,.T.);
#68=FACE_OUTER_BOUND('',#106,.T.);
#69=FACE_OUTER_BOUND('',#107,.T.);
#70=FACE_OUTER_BOUND('',#108,.T.);
#71=EDGE_LOOP('',(#369,#370,#371,#372));
#72=EDGE_LOOP('',(#373,#374,#375,#376));
#73=EDGE_LOOP('',(#377,#378,#379,#380));
#74=EDGE_LOOP('',(#381,#382,#383,#384));
#75=EDGE_LOOP('',(#385,#386,#387,#388));
#76=EDGE_LOOP('',(#389,#390,#391,#392));
#77=EDGE_LOOP('',(#393,#394,#395,#396));
#78=EDGE_LOOP('',(#397,#398,#399,#400));
#79=EDGE_LOOP('',(#401,#402,#403,#404));
#80=EDGE_LOOP('',(#405,#406,#407,#408));
#81=EDGE_LOOP('',(#409,#410,#411,#412));
#82=EDGE_LOOP('',(#413,#414,#415,#416));
#83=EDGE_LOOP('',(#417,#418,#419,#420));
#84=EDGE_LOOP('',(#421,#422,#423,#424));
#85=EDGE_LOOP('',(#425,#426,#427,#428));
#86=EDGE_LOOP('',(#429,#430,#431,#432));
#87=EDGE_LOOP('',(#433,#434,#435,#436));
#88=EDGE_LOOP('',(#437,#438,#439,#440));
#89=EDGE_LOOP('',(#441,#442,#443,#444,#445,#446,#447,#448,#449,#450,#451,
#452));
#90=EDGE_LOOP('',(#453,#454,#455,#456));
#91=EDGE_LOOP('',(#457,#458,#459,#460));
#92=EDGE_LOOP('',(#461,#462,#463,#464));
#93=EDGE_LOOP('',(#465,#466,#467,#468));
#94=EDGE_LOOP('',(#469,#470,#471,#472));
#95=EDGE_LOOP('',(#473,#474,#475,#476));
#96=EDGE_LOOP('',(#477,#478,#479,#480));
#97=EDGE_LOOP('',(#481,#482,#483,#484));
#98=EDGE_LOOP('',(#485,#486,#487,#488));
#99=EDGE_LOOP('',(#489,#490,#491,#492));
#100=EDGE_LOOP('',(#493,#494,#495,#496));
#101=EDGE_LOOP('',(#497,#498,#499,#500));
#102=EDGE_LOOP('',(#501,#502,#503,#504));
#103=EDGE_LOOP('',(#505,#506,#507,#508));
#104=EDGE_LOOP('',(#509,#510,#511,#512));
#105=EDGE_LOOP('',(#513,#514,#515,#516));
#106=EDGE_LOOP('',(#517,#518,#519,#520));
#107=EDGE_LOOP('',(#521,#522,#523,#524,#525,#526,#527,#528,#529,#530,#531,
#532));
#108=EDGE_LOOP('',(#533,#534,#535,#536));
#109=ELLIPSE('',#611,1.41421356237309,1.);
#110=ELLIPSE('',#617,1.4142135623731,1.);
#111=ELLIPSE('',#625,1.41421356237309,1.);
#112=ELLIPSE('',#633,1.4142135623731,1.);
#113=ELLIPSE('',#652,1.4142135623731,1.);
#114=ELLIPSE('',#655,1.41421356237309,1.);
#115=ELLIPSE('',#658,1.41421356237309,1.);
#116=ELLIPSE('',#666,1.41421356237309,1.);
#117=CIRCLE('',#610,1.);
#118=CIRCLE('',#613,1.);
#119=CIRCLE('',#614,4.);
#120=CIRCLE('',#615,3.);
#121=CIRCLE('',#619,1.);
#122=CIRCLE('',#621,1.);
#123=CIRCLE('',#622,4.);
#124=CIRCLE('',#623,3.);
#125=CIRCLE('',#627,1.);
#126=CIRCLE('',#629,1.);
#127=CIRCLE('',#630,4.);
#128=CIRCLE('',#631,3.);
#129=CIRCLE('',#635,1.);
#130=CIRCLE('',#637,1.);
#131=CIRCLE('',#638,4.);
#132=CIRCLE('',#639,3.);
#133=CIRCLE('',#642,4.);
#134=CIRCLE('',#646,4.);
#135=CIRCLE('',#651,1.);
#136=CIRCLE('',#654,0.999999999999996);
#137=CIRCLE('',#657,1.);
#138=CIRCLE('',#660,1.);
#139=CIRCLE('',#661,3.);
#140=CIRCLE('',#662,4.);
#141=CIRCLE('',#665,1.);
#142=CIRCLE('',#668,0.999999999999995);
#143=CIRCLE('',#669,3.);
#144=CIRCLE('',#670,4.);
#145=CIRCLE('',#673,0.999999999999999);
#146=CIRCLE('',#674,3.);
#147=CIRCLE('',#677,0.999999999999999);
#148=CIRCLE('',#678,3.);
#149=LINE('',#893,#193);
#150=LINE('',#897,#194);
#151=LINE('',#907,#195);
#152=LINE('',#909,#196);
#153=LINE('',#913,#197);
#154=LINE('',#916,#198);
#155=LINE('',#925,#199);
#156=LINE('',#927,#200);
#157=LINE('',#931,#201);
#158=LINE('',#934,#202);
#159=LINE('',#943,#203);
#160=LINE('',#945,#204);
#161=LINE('',#949,#205);
#162=LINE('',#952,#206);
#163=LINE('',#960,#207);
#164=LINE('',#961,#208);
#165=LINE('',#964,#209);
#166=LINE('',#967,#210);
#167=LINE('',#970,#211);
#168=LINE('',#971,#212);
#169=LINE('',#974,#213);
#170=LINE('',#975,#214);
#171=LINE('',#978,#215);
#172=LINE('',#982,#216);
#173=LINE('',#983,#217);
#174=LINE('',#986,#218);
#175=LINE('',#987,#219);
#176=LINE('',#993,#220);
#177=LINE('',#997,#221);
#178=LINE('',#1001,#222);
#179=LINE('',#1006,#223);
#180=LINE('',#1010,#224);
#181=LINE('',#1019,#225);
#182=LINE('',#1020,#226);
#183=LINE('',#1025,#227);
#184=LINE('',#1034,#228);
#185=LINE('',#1035,#229);
#186=LINE('',#1041,#230);
#187=LINE('',#1047,#231);
#188=LINE('',#1049,#232);
#189=LINE('',#1050,#233);
#190=LINE('',#1052,#234);
#191=LINE('',#1054,#235);
#192=LINE('',#1056,#236);
#193=VECTOR('',#691,10.);
#194=VECTOR('',#694,10.);
#195=VECTOR('',#707,10.);
#196=VECTOR('',#708,10.);
#197=VECTOR('',#713,10.);
#198=VECTOR('',#716,10.);
#199=VECTOR('',#727,10.);
#200=VECTOR('',#728,10.);
#201=VECTOR('',#733,10.);
#202=VECTOR('',#736,10.);
#203=VECTOR('',#747,10.);
#204=VECTOR('',#748,10.);
#205=VECTOR('',#753,10.);
#206=VECTOR('',#756,10.);
#207=VECTOR('',#767,10.);
#208=VECTOR('',#768,10.);
#209=VECTOR('',#771,10.);
#210=VECTOR('',#774,10.);
#211=VECTOR('',#777,10.);
#212=VECTOR('',#778,10.);
#213=VECTOR('',#781,10.);
#214=VECTOR('',#782,10.);
#215=VECTOR('',#785,10.);
#216=VECTOR('',#790,10.);
#217=VECTOR('',#791,10.);
#218=VECTOR('',#794,10.);
#219=VECTOR('',#795,10.);
#220=VECTOR('',#802,10.);
#221=VECTOR('',#807,10.);
#222=VECTOR('',#810,10.);
#223=VECTOR('',#815,10.);
#224=VECTOR('',#818,10.);
#225=VECTOR('',#831,10.);
#226=VECTOR('',#832,10.);
#227=VECTOR('',#837,10.);
#228=VECTOR('',#850,10.);
#229=VECTOR('',#851,10.);
#230=VECTOR('',#860,10.);
#231=VECTOR('',#869,10.);
#232=VECTOR('',#872,10.);
#233=VECTOR('',#873,10.);
#234=VECTOR('',#876,10.);
#235=VECTOR('',#879,10.);
#236=VECTOR('',#882,10.);
#237=VERTEX_POINT('',#891);
#238=VERTEX_POINT('',#892);
#239=VERTEX_POINT('',#894);
#240=VERTEX_POINT('',#896);
#241=VERTEX_POINT('',#900);
#242=VERTEX_POINT('',#901);
#243=VERTEX_POINT('',#906);
#244=VERTEX_POINT('',#908);
#245=VERTEX_POINT('',#912);
#246=VERTEX_POINT('',#914);
#247=VERTEX_POINT('',#918);
#248=VERTEX_POINT('',#919);
#249=VERTEX_POINT('',#924);
#250=VERTEX_POINT('',#926);
#251=VERTEX_POINT('',#930);
#252=VERTEX_POINT('',#932);
#253=VERTEX_POINT('',#936);
#254=VERTEX_POINT('',#937);
#255=VERTEX_POINT('',#942);
#256=VERTEX_POINT('',#944);
#257=VERTEX_POINT('',#948);
#258=VERTEX_POINT('',#950);
#259=VERTEX_POINT('',#954);
#260=VERTEX_POINT('',#955);
#261=VERTEX_POINT('',#963);
#262=VERTEX_POINT('',#965);
#263=VERTEX_POINT('',#969);
#264=VERTEX_POINT('',#973);
#265=VERTEX_POINT('',#977);
#266=VERTEX_POINT('',#981);
#267=VERTEX_POINT('',#985);
#268=VERTEX_POINT('',#990);
#269=VERTEX_POINT('',#992);
#270=VERTEX_POINT('',#996);
#271=VERTEX_POINT('',#998);
#272=VERTEX_POINT('',#1000);
#273=VERTEX_POINT('',#1004);
#274=VERTEX_POINT('',#1005);
#275=VERTEX_POINT('',#1007);
#276=VERTEX_POINT('',#1009);
#277=VERTEX_POINT('',#1013);
#278=VERTEX_POINT('',#1014);
#279=VERTEX_POINT('',#1022);
#280=VERTEX_POINT('',#1024);
#281=VERTEX_POINT('',#1028);
#282=VERTEX_POINT('',#1029);
#283=VERTEX_POINT('',#1037);
#284=VERTEX_POINT('',#1043);
#285=EDGE_CURVE('',#237,#238,#149,.T.);
#286=EDGE_CURVE('',#238,#239,#117,.T.);
#287=EDGE_CURVE('',#239,#240,#150,.T.);
#288=EDGE_CURVE('',#237,#240,#109,.T.);
#289=EDGE_CURVE('',#241,#242,#118,.T.);
#290=EDGE_CURVE('',#242,#239,#119,.T.);
#291=EDGE_CURVE('',#238,#241,#120,.T.);
#292=EDGE_CURVE('',#243,#242,#151,.T.);
#293=EDGE_CURVE('',#241,#244,#152,.T.);
#294=EDGE_CURVE('',#244,#243,#110,.T.);
#295=EDGE_CURVE('',#244,#245,#153,.T.);
#296=EDGE_CURVE('',#245,#246,#121,.T.);
#297=EDGE_CURVE('',#246,#243,#154,.T.);
#298=EDGE_CURVE('',#247,#248,#122,.T.);
#299=EDGE_CURVE('',#248,#246,#123,.T.);
#300=EDGE_CURVE('',#245,#247,#124,.T.);
#301=EDGE_CURVE('',#249,#248,#155,.T.);
#302=EDGE_CURVE('',#247,#250,#156,.T.);
#303=EDGE_CURVE('',#250,#249,#111,.T.);
#304=EDGE_CURVE('',#250,#251,#157,.T.);
#305=EDGE_CURVE('',#251,#252,#125,.T.);
#306=EDGE_CURVE('',#252,#249,#158,.T.);
#307=EDGE_CURVE('',#253,#254,#126,.T.);
#308=EDGE_CURVE('',#254,#252,#127,.T.);
#309=EDGE_CURVE('',#251,#253,#128,.T.);
#310=EDGE_CURVE('',#255,#254,#159,.T.);
#311=EDGE_CURVE('',#253,#256,#160,.T.);
#312=EDGE_CURVE('',#256,#255,#112,.T.);
#313=EDGE_CURVE('',#256,#257,#161,.T.);
#314=EDGE_CURVE('',#257,#258,#129,.T.);
#315=EDGE_CURVE('',#258,#255,#162,.T.);
#316=EDGE_CURVE('',#259,#260,#130,.T.);
#317=EDGE_CURVE('',#260,#258,#131,.T.);
#318=EDGE_CURVE('',#257,#259,#132,.T.);
#319=EDGE_CURVE('',#240,#260,#163,.T.);
#320=EDGE_CURVE('',#259,#237,#164,.T.);
#321=EDGE_CURVE('',#254,#261,#165,.T.);
#322=EDGE_CURVE('',#262,#261,#133,.T.);
#323=EDGE_CURVE('',#252,#262,#166,.T.);
#324=EDGE_CURVE('',#255,#263,#167,.T.);
#325=EDGE_CURVE('',#261,#263,#168,.T.);
#326=EDGE_CURVE('',#258,#264,#169,.T.);
#327=EDGE_CURVE('',#263,#264,#170,.T.);
#328=EDGE_CURVE('',#260,#265,#171,.T.);
#329=EDGE_CURVE('',#264,#265,#134,.T.);
#330=EDGE_CURVE('',#240,#266,#172,.T.);
#331=EDGE_CURVE('',#265,#266,#173,.T.);
#332=EDGE_CURVE('',#239,#267,#174,.T.);
#333=EDGE_CURVE('',#266,#267,#175,.T.);
#334=EDGE_CURVE('',#264,#268,#135,.T.);
#335=EDGE_CURVE('',#268,#269,#176,.T.);
#336=EDGE_CURVE('',#269,#263,#113,.T.);
#337=EDGE_CURVE('',#270,#262,#177,.T.);
#338=EDGE_CURVE('',#262,#271,#136,.T.);
#339=EDGE_CURVE('',#271,#272,#178,.T.);
#340=EDGE_CURVE('',#272,#270,#114,.T.);
#341=EDGE_CURVE('',#273,#274,#179,.T.);
#342=EDGE_CURVE('',#274,#275,#137,.T.);
#343=EDGE_CURVE('',#275,#276,#180,.T.);
#344=EDGE_CURVE('',#276,#273,#115,.T.);
#345=EDGE_CURVE('',#277,#278,#138,.T.);
#346=EDGE_CURVE('',#278,#275,#139,.T.);
#347=EDGE_CURVE('',#274,#277,#140,.T.);
#348=EDGE_CURVE('',#272,#278,#181,.T.);
#349=EDGE_CURVE('',#277,#270,#182,.T.);
#350=EDGE_CURVE('',#267,#279,#141,.T.);
#351=EDGE_CURVE('',#279,#280,#183,.T.);
#352=EDGE_CURVE('',#280,#266,#116,.T.);
#353=EDGE_CURVE('',#281,#282,#142,.T.);
#354=EDGE_CURVE('',#282,#279,#143,.T.);
#355=EDGE_CURVE('',#267,#281,#144,.T.);
#356=EDGE_CURVE('',#276,#282,#184,.T.);
#357=EDGE_CURVE('',#281,#273,#185,.T.);
#358=EDGE_CURVE('',#261,#283,#145,.T.);
#359=EDGE_CURVE('',#283,#271,#146,.T.);
#360=EDGE_CURVE('',#269,#283,#186,.T.);
#361=EDGE_CURVE('',#265,#284,#147,.T.);
#362=EDGE_CURVE('',#284,#268,#148,.T.);
#363=EDGE_CURVE('',#280,#284,#187,.T.);
#364=EDGE_CURVE('',#249,#270,#188,.T.);
#365=EDGE_CURVE('',#248,#277,#189,.T.);
#366=EDGE_CURVE('',#246,#274,#190,.T.);
#367=EDGE_CURVE('',#243,#273,#191,.T.);
#368=EDGE_CURVE('',#242,#281,#192,.T.);
#369=ORIENTED_EDGE('',*,*,#285,.T.);
#370=ORIENTED_EDGE('',*,*,#286,.T.);
#371=ORIENTED_EDGE('',*,*,#287,.T.);
#372=ORIENTED_EDGE('',*,*,#288,.F.);
#373=ORIENTED_EDGE('',*,*,#289,.T.);
#374=ORIENTED_EDGE('',*,*,#290,.T.);
#375=ORIENTED_EDGE('',*,*,#286,.F.);
#376=ORIENTED_EDGE('',*,*,#291,.T.);
#377=ORIENTED_EDGE('',*,*,#292,.T.);
#378=ORIENTED_EDGE('',*,*,#289,.F.);
#379=ORIENTED_EDGE('',*,*,#293,.T.);
#380=ORIENTED_EDGE('',*,*,#294,.T.);
#381=ORIENTED_EDGE('',*,*,#295,.T.);
#382=ORIENTED_EDGE('',*,*,#296,.T.);
#383=ORIENTED_EDGE('',*,*,#297,.T.);
#384=ORIENTED_EDGE('',*,*,#294,.F.);
#385=ORIENTED_EDGE('',*,*,#298,.T.);
#386=ORIENTED_EDGE('',*,*,#299,.T.);
#387=ORIENTED_EDGE('',*,*,#296,.F.);
#388=ORIENTED_EDGE('',*,*,#300,.T.);
#389=ORIENTED_EDGE('',*,*,#301,.T.);
#390=ORIENTED_EDGE('',*,*,#298,.F.);
#391=ORIENTED_EDGE('',*,*,#302,.T.);
#392=ORIENTED_EDGE('',*,*,#303,.T.);
#393=ORIENTED_EDGE('',*,*,#304,.T.);
#394=ORIENTED_EDGE('',*,*,#305,.T.);
#395=ORIENTED_EDGE('',*,*,#306,.T.);
#396=ORIENTED_EDGE('',*,*,#303,.F.);
#397=ORIENTED_EDGE('',*,*,#307,.T.);
#398=ORIENTED_EDGE('',*,*,#308,.T.);
#399=ORIENTED_EDGE('',*,*,#305,.F.);
#400=ORIENTED_EDGE('',*,*,#309,.T.);
#401=ORIENTED_EDGE('',*,*,#310,.T.);
#402=ORIENTED_EDGE('',*,*,#307,.F.);
#403=ORIENTED_EDGE('',*,*,#311,.T.);
#404=ORIENTED_EDGE('',*,*,#312,.T.);
#405=ORIENTED_EDGE('',*,*,#313,.T.);
#406=ORIENTED_EDGE('',*,*,#314,.T.);
#407=ORIENTED_EDGE('',*,*,#315,.T.);
#408=ORIENTED_EDGE('',*,*,#312,.F.);
#409=ORIENTED_EDGE('',*,*,#316,.T.);
#410=ORIENTED_EDGE('',*,*,#317,.T.);
#411=ORIENTED_EDGE('',*,*,#314,.F.);
#412=ORIENTED_EDGE('',*,*,#318,.T.);
#413=ORIENTED_EDGE('',*,*,#319,.T.);
#414=ORIENTED_EDGE('',*,*,#316,.F.);
#415=ORIENTED_EDGE('',*,*,#320,.T.);
#416=ORIENTED_EDGE('',*,*,#288,.T.);
#417=ORIENTED_EDGE('',*,*,#308,.F.);
#418=ORIENTED_EDGE('',*,*,#321,.T.);
#419=ORIENTED_EDGE('',*,*,#322,.F.);
#420=ORIENTED_EDGE('',*,*,#323,.F.);
#421=ORIENTED_EDGE('',*,*,#310,.F.);
#422=ORIENTED_EDGE('',*,*,#324,.T.);
#423=ORIENTED_EDGE('',*,*,#325,.F.);
#424=ORIENTED_EDGE('',*,*,#321,.F.);
#425=ORIENTED_EDGE('',*,*,#315,.F.);
#426=ORIENTED_EDGE('',*,*,#326,.T.);
#427=ORIENTED_EDGE('',*,*,#327,.F.);
#428=ORIENTED_EDGE('',*,*,#324,.F.);
#429=ORIENTED_EDGE('',*,*,#317,.F.);
#430=ORIENTED_EDGE('',*,*,#328,.T.);
#431=ORIENTED_EDGE('',*,*,#329,.F.);
#432=ORIENTED_EDGE('',*,*,#326,.F.);
#433=ORIENTED_EDGE('',*,*,#319,.F.);
#434=ORIENTED_EDGE('',*,*,#330,.T.);
#435=ORIENTED_EDGE('',*,*,#331,.F.);
#436=ORIENTED_EDGE('',*,*,#328,.F.);
#437=ORIENTED_EDGE('',*,*,#287,.F.);
#438=ORIENTED_EDGE('',*,*,#332,.T.);
#439=ORIENTED_EDGE('',*,*,#333,.F.);
#440=ORIENTED_EDGE('',*,*,#330,.F.);
#441=ORIENTED_EDGE('',*,*,#285,.F.);
#442=ORIENTED_EDGE('',*,*,#320,.F.);
#443=ORIENTED_EDGE('',*,*,#318,.F.);
#444=ORIENTED_EDGE('',*,*,#313,.F.);
#445=ORIENTED_EDGE('',*,*,#311,.F.);
#446=ORIENTED_EDGE('',*,*,#309,.F.);
#447=ORIENTED_EDGE('',*,*,#304,.F.);
#448=ORIENTED_EDGE('',*,*,#302,.F.);
#449=ORIENTED_EDGE('',*,*,#300,.F.);
#450=ORIENTED_EDGE('',*,*,#295,.F.);
#451=ORIENTED_EDGE('',*,*,#293,.F.);
#452=ORIENTED_EDGE('',*,*,#291,.F.);
#453=ORIENTED_EDGE('',*,*,#327,.T.);
#454=ORIENTED_EDGE('',*,*,#334,.T.);
#455=ORIENTED_EDGE('',*,*,#335,.T.);
#456=ORIENTED_EDGE('',*,*,#336,.T.);
#457=ORIENTED_EDGE('',*,*,#337,.T.);
#458=ORIENTED_EDGE('',*,*,#338,.T.);
#459=ORIENTED_EDGE('',*,*,#339,.T.);
#460=ORIENTED_EDGE('',*,*,#340,.T.);
#461=ORIENTED_EDGE('',*,*,#341,.T.);
#462=ORIENTED_EDGE('',*,*,#342,.T.);
#463=ORIENTED_EDGE('',*,*,#343,.T.);
#464=ORIENTED_EDGE('',*,*,#344,.T.);
#465=ORIENTED_EDGE('',*,*,#345,.T.);
#466=ORIENTED_EDGE('',*,*,#346,.T.);
#467=ORIENTED_EDGE('',*,*,#342,.F.);
#468=ORIENTED_EDGE('',*,*,#347,.T.);
#469=ORIENTED_EDGE('',*,*,#348,.T.);
#470=ORIENTED_EDGE('',*,*,#345,.F.);
#471=ORIENTED_EDGE('',*,*,#349,.T.);
#472=ORIENTED_EDGE('',*,*,#340,.F.);
#473=ORIENTED_EDGE('',*,*,#333,.T.);
#474=ORIENTED_EDGE('',*,*,#350,.T.);
#475=ORIENTED_EDGE('',*,*,#351,.T.);
#476=ORIENTED_EDGE('',*,*,#352,.T.);
#477=ORIENTED_EDGE('',*,*,#353,.T.);
#478=ORIENTED_EDGE('',*,*,#354,.T.);
#479=ORIENTED_EDGE('',*,*,#350,.F.);
#480=ORIENTED_EDGE('',*,*,#355,.T.);
#481=ORIENTED_EDGE('',*,*,#356,.T.);
#482=ORIENTED_EDGE('',*,*,#353,.F.);
#483=ORIENTED_EDGE('',*,*,#357,.T.);
#484=ORIENTED_EDGE('',*,*,#344,.F.);
#485=ORIENTED_EDGE('',*,*,#358,.T.);
#486=ORIENTED_EDGE('',*,*,#359,.T.);
#487=ORIENTED_EDGE('',*,*,#338,.F.);
#488=ORIENTED_EDGE('',*,*,#322,.T.);
#489=ORIENTED_EDGE('',*,*,#360,.T.);
#490=ORIENTED_EDGE('',*,*,#358,.F.);
#491=ORIENTED_EDGE('',*,*,#325,.T.);
#492=ORIENTED_EDGE('',*,*,#336,.F.);
#493=ORIENTED_EDGE('',*,*,#361,.T.);
#494=ORIENTED_EDGE('',*,*,#362,.T.);
#495=ORIENTED_EDGE('',*,*,#334,.F.);
#496=ORIENTED_EDGE('',*,*,#329,.T.);
#497=ORIENTED_EDGE('',*,*,#363,.T.);
#498=ORIENTED_EDGE('',*,*,#361,.F.);
#499=ORIENTED_EDGE('',*,*,#331,.T.);
#500=ORIENTED_EDGE('',*,*,#352,.F.);
#501=ORIENTED_EDGE('',*,*,#301,.F.);
#502=ORIENTED_EDGE('',*,*,#364,.T.);
#503=ORIENTED_EDGE('',*,*,#349,.F.);
#504=ORIENTED_EDGE('',*,*,#365,.F.);
#505=ORIENTED_EDGE('',*,*,#299,.F.);
#506=ORIENTED_EDGE('',*,*,#365,.T.);
#507=ORIENTED_EDGE('',*,*,#347,.F.);
#508=ORIENTED_EDGE('',*,*,#366,.F.);
#509=ORIENTED_EDGE('',*,*,#297,.F.);
#510=ORIENTED_EDGE('',*,*,#366,.T.);
#511=ORIENTED_EDGE('',*,*,#341,.F.);
#512=ORIENTED_EDGE('',*,*,#367,.F.);
#513=ORIENTED_EDGE('',*,*,#292,.F.);
#514=ORIENTED_EDGE('',*,*,#367,.T.);
#515=ORIENTED_EDGE('',*,*,#357,.F.);
#516=ORIENTED_EDGE('',*,*,#368,.F.);
#517=ORIENTED_EDGE('',*,*,#290,.F.);
#518=ORIENTED_EDGE('',*,*,#368,.T.);
#519=ORIENTED_EDGE('',*,*,#355,.F.);
#520=ORIENTED_EDGE('',*,*,#332,.F.);
#521=ORIENTED_EDGE('',*,*,#351,.F.);
#522=ORIENTED_EDGE('',*,*,#354,.F.);
#523=ORIENTED_EDGE('',*,*,#356,.F.);
#524=ORIENTED_EDGE('',*,*,#343,.F.);
#525=ORIENTED_EDGE('',*,*,#346,.F.);
#526=ORIENTED_EDGE('',*,*,#348,.F.);
#527=ORIENTED_EDGE('',*,*,#339,.F.);
#528=ORIENTED_EDGE('',*,*,#359,.F.);
#529=ORIENTED_EDGE('',*,*,#360,.F.);
#530=ORIENTED_EDGE('',*,*,#335,.F.);
#531=ORIENTED_EDGE('',*,*,#362,.F.);
#532=ORIENTED_EDGE('',*,*,#363,.F.);
#533=ORIENTED_EDGE('',*,*,#306,.F.);
#534=ORIENTED_EDGE('',*,*,#323,.T.);
#535=ORIENTED_EDGE('',*,*,#337,.F.);
#536=ORIENTED_EDGE('',*,*,#364,.F.);
#537=CYLINDRICAL_SURFACE('',#609,1.);
#538=CYLINDRICAL_SURFACE('',#616,1.);
#539=CYLINDRICAL_SURFACE('',#618,1.);
#540=CYLINDRICAL_SURFACE('',#624,1.);
#541=CYLINDRICAL_SURFACE('',#626,1.);
#542=CYLINDRICAL_SURFACE('',#632,1.);
#543=CYLINDRICAL_SURFACE('',#634,1.);
#544=CYLINDRICAL_SURFACE('',#640,1.);
#545=CYLINDRICAL_SURFACE('',#641,4.);
#546=CYLINDRICAL_SURFACE('',#645,4.);
#547=CYLINDRICAL_SURFACE('',#650,1.);
#548=CYLINDRICAL_SURFACE('',#653,1.);
#549=CYLINDRICAL_SURFACE('',#656,1.);
#550=CYLINDRICAL_SURFACE('',#663,1.);
#551=CYLINDRICAL_SURFACE('',#664,1.);
#552=CYLINDRICAL_SURFACE('',#671,1.);
#553=CYLINDRICAL_SURFACE('',#675,1.);
#554=CYLINDRICAL_SURFACE('',#679,1.);
#555=CYLINDRICAL_SURFACE('',#681,4.);
#556=CYLINDRICAL_SURFACE('',#684,4.);
#557=ADVANCED_FACE('',(#33),#537,.T.);
#558=ADVANCED_FACE('',(#34),#25,.T.);
#559=ADVANCED_FACE('',(#35),#538,.T.);
#560=ADVANCED_FACE('',(#36),#539,.T.);
#561=ADVANCED_FACE('',(#37),#26,.T.);
#562=ADVANCED_FACE('',(#38),#540,.T.);
#563=ADVANCED_FACE('',(#39),#541,.T.);
#564=ADVANCED_FACE('',(#40),#27,.T.);
#565=ADVANCED_FACE('',(#41),#542,.T.);
#566=ADVANCED_FACE('',(#42),#543,.T.);
#567=ADVANCED_FACE('',(#43),#28,.T.);
#568=ADVANCED_FACE('',(#44),#544,.T.);
#569=ADVANCED_FACE('',(#45),#545,.T.);
#570=ADVANCED_FACE('',(#46),#15,.T.);
#571=ADVANCED_FACE('',(#47),#16,.T.);
#572=ADVANCED_FACE('',(#48),#546,.T.);
#573=ADVANCED_FACE('',(#49),#17,.T.);
#574=ADVANCED_FACE('',(#50),#18,.T.);
#575=ADVANCED_FACE('',(#51),#19,.F.);
#576=ADVANCED_FACE('',(#52),#547,.T.);
#577=ADVANCED_FACE('',(#53),#548,.T.);
#578=ADVANCED_FACE('',(#54),#549,.T.);
#579=ADVANCED_FACE('',(#55),#29,.T.);
#580=ADVANCED_FACE('',(#56),#550,.T.);
#581=ADVANCED_FACE('',(#57),#551,.T.);
#582=ADVANCED_FACE('',(#58),#30,.T.);
#583=ADVANCED_FACE('',(#59),#552,.T.);
#584=ADVANCED_FACE('',(#60),#31,.T.);
#585=ADVANCED_FACE('',(#61),#553,.T.);
#586=ADVANCED_FACE('',(#62),#32,.T.);
#587=ADVANCED_FACE('',(#63),#554,.T.);
#588=ADVANCED_FACE('',(#64),#20,.T.);
#589=ADVANCED_FACE('',(#65),#555,.T.);
#590=ADVANCED_FACE('',(#66),#21,.T.);
#591=ADVANCED_FACE('',(#67),#22,.T.);
#592=ADVANCED_FACE('',(#68),#556,.T.);
#593=ADVANCED_FACE('',(#69),#23,.T.);
#594=ADVANCED_FACE('',(#70),#24,.T.);
#595=CLOSED_SHELL('',(#557,#558,#559,#560,#561,#562,#563,#564,#565,#566,
#567,#568,#569,#570,#571,#572,#573,#574,#575,#576,#577,#578,#579,#580,#581,
#582,#583,#584,#585,#586,#587,#588,#589,#590,#591,#592,#593,#594));
#596=DERIVED_UNIT_ELEMENT(#598,1.);
#597=DERIVED_UNIT_ELEMENT(#1065,-3.);
#598=(
MASS_UNIT()
NAMED_UNIT(*)
SI_UNIT(.KILO.,.GRAM.)
);
#599=DERIVED_UNIT((#596,#597));
#600=MEASURE_REPRESENTATION_ITEM('density measure',
POSITIVE_RATIO_MEASURE(7850.),#599);
#601=PROPERTY_DEFINITION_REPRESENTATION(#606,#603);
#602=PROPERTY_DEFINITION_REPRESENTATION(#607,#604);
#603=REPRESENTATION('material name',(#605),#1062);
#604=REPRESENTATION('density',(#600),#1062);
#605=DESCRIPTIVE_REPRESENTATION_ITEM('Steel','Steel');
#606=PROPERTY_DEFINITION('material property','material name',#1072);
#607=PROPERTY_DEFINITION('material property','density of part',#1072);
#608=AXIS2_PLACEMENT_3D('',#889,#687,#688);
#609=AXIS2_PLACEMENT_3D('',#890,#689,#690);
#610=AXIS2_PLACEMENT_3D('',#895,#692,#693);
#611=AXIS2_PLACEMENT_3D('',#898,#695,#696);
#612=AXIS2_PLACEMENT_3D('',#899,#697,#698);
#613=AXIS2_PLACEMENT_3D('',#902,#699,#700);
#614=AXIS2_PLACEMENT_3D('',#903,#701,#702);
#615=AXIS2_PLACEMENT_3D('',#904,#703,#704);
#616=AXIS2_PLACEMENT_3D('',#905,#705,#706);
#617=AXIS2_PLACEMENT_3D('',#910,#709,#710);
#618=AXIS2_PLACEMENT_3D('',#911,#711,#712);
#619=AXIS2_PLACEMENT_3D('',#915,#714,#715);
#620=AXIS2_PLACEMENT_3D('',#917,#717,#718);
#621=AXIS2_PLACEMENT_3D('',#920,#719,#720);
#622=AXIS2_PLACEMENT_3D('',#921,#721,#722);
#623=AXIS2_PLACEMENT_3D('',#922,#723,#724);
#624=AXIS2_PLACEMENT_3D('',#923,#725,#726);
#625=AXIS2_PLACEMENT_3D('',#928,#729,#730);
#626=AXIS2_PLACEMENT_3D('',#929,#731,#732);
#627=AXIS2_PLACEMENT_3D('',#933,#734,#735);
#628=AXIS2_PLACEMENT_3D('',#935,#737,#738);
#629=AXIS2_PLACEMENT_3D('',#938,#739,#740);
#630=AXIS2_PLACEMENT_3D('',#939,#741,#742);
#631=AXIS2_PLACEMENT_3D('',#940,#743,#744);
#632=AXIS2_PLACEMENT_3D('',#941,#745,#746);
#633=AXIS2_PLACEMENT_3D('',#946,#749,#750);
#634=AXIS2_PLACEMENT_3D('',#947,#751,#752);
#635=AXIS2_PLACEMENT_3D('',#951,#754,#755);
#636=AXIS2_PLACEMENT_3D('',#953,#757,#758);
#637=AXIS2_PLACEMENT_3D('',#956,#759,#760);
#638=AXIS2_PLACEMENT_3D('',#957,#761,#762);
#639=AXIS2_PLACEMENT_3D('',#958,#763,#764);
#640=AXIS2_PLACEMENT_3D('',#959,#765,#766);
#641=AXIS2_PLACEMENT_3D('',#962,#769,#770);
#642=AXIS2_PLACEMENT_3D('',#966,#772,#773);
#643=AXIS2_PLACEMENT_3D('',#968,#775,#776);
#644=AXIS2_PLACEMENT_3D('',#972,#779,#780);
#645=AXIS2_PLACEMENT_3D('',#976,#783,#784);
#646=AXIS2_PLACEMENT_3D('',#979,#786,#787);
#647=AXIS2_PLACEMENT_3D('',#980,#788,#789);
#648=AXIS2_PLACEMENT_3D('',#984,#792,#793);
#649=AXIS2_PLACEMENT_3D('',#988,#796,#797);
#650=AXIS2_PLACEMENT_3D('',#989,#798,#799);
#651=AXIS2_PLACEMENT_3D('',#991,#800,#801);
#652=AXIS2_PLACEMENT_3D('',#994,#803,#804);
#653=AXIS2_PLACEMENT_3D('',#995,#805,#806);
#654=AXIS2_PLACEMENT_3D('',#999,#808,#809);
#655=AXIS2_PLACEMENT_3D('',#1002,#811,#812);
#656=AXIS2_PLACEMENT_3D('',#1003,#813,#814);
#657=AXIS2_PLACEMENT_3D('',#1008,#816,#817);
#658=AXIS2_PLACEMENT_3D('',#1011,#819,#820);
#659=AXIS2_PLACEMENT_3D('',#1012,#821,#822);
#660=AXIS2_PLACEMENT_3D('',#1015,#823,#824);
#661=AXIS2_PLACEMENT_3D('',#1016,#825,#826);
#662=AXIS2_PLACEMENT_3D('',#1017,#827,#828);
#663=AXIS2_PLACEMENT_3D('',#1018,#829,#830);
#664=AXIS2_PLACEMENT_3D('',#1021,#833,#834);
#665=AXIS2_PLACEMENT_3D('',#1023,#835,#836);
#666=AXIS2_PLACEMENT_3D('',#1026,#838,#839);
#667=AXIS2_PLACEMENT_3D('',#1027,#840,#841);
#668=AXIS2_PLACEMENT_3D('',#1030,#842,#843);
#669=AXIS2_PLACEMENT_3D('',#1031,#844,#845);
#670=AXIS2_PLACEMENT_3D('',#1032,#846,#847);
#671=AXIS2_PLACEMENT_3D('',#1033,#848,#849);
#672=AXIS2_PLACEMENT_3D('',#1036,#852,#853);
#673=AXIS2_PLACEMENT_3D('',#1038,#854,#855);
#674=AXIS2_PLACEMENT_3D('',#1039,#856,#857);
#675=AXIS2_PLACEMENT_3D('',#1040,#858,#859);
#676=AXIS2_PLACEMENT_3D('',#1042,#861,#862);
#677=AXIS2_PLACEMENT_3D('',#1044,#863,#864);
#678=AXIS2_PLACEMENT_3D('',#1045,#865,#866);
#679=AXIS2_PLACEMENT_3D('',#1046,#867,#868);
#680=AXIS2_PLACEMENT_3D('',#1048,#870,#871);
#681=AXIS2_PLACEMENT_3D('',#1051,#874,#875);
#682=AXIS2_PLACEMENT_3D('',#1053,#877,#878);
#683=AXIS2_PLACEMENT_3D('',#1055,#880,#881);
#684=AXIS2_PLACEMENT_3D('',#1057,#883,#884);
#685=AXIS2_PLACEMENT_3D('',#1058,#885,#886);
#686=AXIS2_PLACEMENT_3D('',#1059,#887,#888);
#687=DIRECTION('axis',(0.,0.,1.));
#688=DIRECTION('refdir',(1.,0.,0.));
#689=DIRECTION('center_axis',(0.707106781186547,0.707106781186548,0.));
#690=DIRECTION('ref_axis',(0.5,-0.5,-0.707106781186548));
#691=DIRECTION('',(0.707106781186547,0.707106781186548,0.));
#692=DIRECTION('center_axis',(-0.707106781186546,-0.707106781186549,0.));
#693=DIRECTION('ref_axis',(0.,0.,-1.));
#694=DIRECTION('',(-0.707106781186547,-0.707106781186548,0.));
#695=DIRECTION('center_axis',(0.,-1.,0.));
#696=DIRECTION('ref_axis',(1.,0.,0.));
#697=DIRECTION('center_axis',(0.,0.,1.));
#698=DIRECTION('ref_axis',(1.,0.,0.));
#699=DIRECTION('center_axis',(0.707106781186545,0.70710678118655,0.));
#700=DIRECTION('ref_axis',(0.,0.,-1.));
#701=DIRECTION('center_axis',(0.,0.,-1.));
#702=DIRECTION('ref_axis',(0.707106781186549,0.707106781186546,0.));
#703=DIRECTION('center_axis',(0.,0.,1.));
#704=DIRECTION('ref_axis',(0.707106781186549,0.707106781186546,0.));
#705=DIRECTION('center_axis',(-0.707106781186548,-0.707106781186547,0.));
#706=DIRECTION('ref_axis',(-0.5,0.5,-0.707106781186548));
#707=DIRECTION('',(0.707106781186548,0.707106781186547,0.));
#708=DIRECTION('',(-0.707106781186548,-0.707106781186547,0.));
#709=DIRECTION('center_axis',(1.,-3.14018491736757E-15,0.));
#710=DIRECTION('ref_axis',(3.14018491736757E-15,1.,0.));
#711=DIRECTION('center_axis',(-0.707106781186547,0.707106781186548,0.));
#712=DIRECTION('ref_axis',(0.5,0.5,-0.707106781186548));
#713=DIRECTION('',(-0.707106781186547,0.707106781186548,0.));
#714=DIRECTION('center_axis',(0.70710678118655,-0.707106781186545,0.));
#715=DIRECTION('ref_axis',(0.,0.,-1.));
#716=DIRECTION('',(0.707106781186547,-0.707106781186548,0.));
#717=DIRECTION('center_axis',(0.,0.,1.));
#718=DIRECTION('ref_axis',(-0.707106781186547,0.707106781186548,0.));
#719=DIRECTION('center_axis',(-0.70710678118655,0.707106781186545,0.));
#720=DIRECTION('ref_axis',(0.,0.,-1.));
#721=DIRECTION('center_axis',(0.,0.,-1.));
#722=DIRECTION('ref_axis',(-0.707106781186546,0.707106781186549,0.));
#723=DIRECTION('center_axis',(0.,0.,1.));
#724=DIRECTION('ref_axis',(-0.707106781186546,0.707106781186549,0.));
#725=DIRECTION('center_axis',(0.707106781186547,-0.707106781186548,0.));
#726=DIRECTION('ref_axis',(-0.5,-0.5,-0.707106781186548));
#727=DIRECTION('',(-0.707106781186547,0.707106781186548,0.));
#728=DIRECTION('',(0.707106781186547,-0.707106781186548,0.));
#729=DIRECTION('center_axis',(0.,1.,0.));
#730=DIRECTION('ref_axis',(-1.,0.,0.));
#731=DIRECTION('center_axis',(-0.707106781186548,-0.707106781186547,0.));
#732=DIRECTION('ref_axis',(-0.5,0.5,-0.707106781186548));
#733=DIRECTION('',(-0.707106781186548,-0.707106781186547,0.));
#734=DIRECTION('center_axis',(0.707106781186546,0.707106781186549,0.));
#735=DIRECTION('ref_axis',(0.,0.,-1.));
#736=DIRECTION('',(0.707106781186548,0.707106781186547,0.));
#737=DIRECTION('center_axis',(0.,0.,1.));
#738=DIRECTION('ref_axis',(-0.707106781186548,-0.707106781186547,0.));
#739=DIRECTION('center_axis',(-0.707106781186548,-0.707106781186547,0.));
#740=DIRECTION('ref_axis',(0.,0.,-1.));
#741=DIRECTION('center_axis',(0.,0.,-1.));
#742=DIRECTION('ref_axis',(-0.707106781186548,-0.707106781186548,0.));
#743=DIRECTION('center_axis',(0.,0.,1.));
#744=DIRECTION('ref_axis',(-0.707106781186548,-0.707106781186548,0.));
#745=DIRECTION('center_axis',(0.707106781186547,0.707106781186548,0.));
#746=DIRECTION('ref_axis',(0.5,-0.5,-0.707106781186548));
#747=DIRECTION('',(-0.707106781186547,-0.707106781186548,0.));
#748=DIRECTION('',(0.707106781186547,0.707106781186548,0.));
#749=DIRECTION('center_axis',(-1.,0.,0.));
#750=DIRECTION('ref_axis',(0.,-1.,0.));
#751=DIRECTION('center_axis',(0.707106781186547,-0.707106781186548,0.));
#752=DIRECTION('ref_axis',(-0.499999999999999,-0.500000000000002,-0.707106781186547));
#753=DIRECTION('',(0.707106781186547,-0.707106781186548,0.));
#754=DIRECTION('center_axis',(-0.707106781186542,0.707106781186553,0.));
#755=DIRECTION('ref_axis',(0.,0.,-1.));
#756=DIRECTION('',(-0.707106781186547,0.707106781186548,0.));
#757=DIRECTION('center_axis',(0.,0.,1.));
#758=DIRECTION('ref_axis',(1.,0.,0.));
#759=DIRECTION('center_axis',(0.707106781186547,-0.707106781186549,0.));
#760=DIRECTION('ref_axis',(0.,0.,-1.));
#761=DIRECTION('center_axis',(0.,0.,-1.));
#762=DIRECTION('ref_axis',(0.707106781186547,-0.707106781186548,0.));
#763=DIRECTION('center_axis',(0.,0.,1.));
#764=DIRECTION('ref_axis',(0.707106781186547,-0.707106781186548,0.));
#765=DIRECTION('center_axis',(-0.707106781186547,0.707106781186548,0.));
#766=DIRECTION('ref_axis',(0.5,0.500000000000001,-0.707106781186547));
#767=DIRECTION('',(0.707106781186547,-0.707106781186548,0.));
#768=DIRECTION('',(-0.707106781186547,0.707106781186548,0.));
#769=DIRECTION('center_axis',(0.,0.,1.));
#770=DIRECTION('ref_axis',(-0.707106781186547,0.707106781186548,0.));
#771=DIRECTION('',(0.,0.,1.));
#772=DIRECTION('center_axis',(0.,0.,1.));
#773=DIRECTION('ref_axis',(-0.707106781186548,-0.707106781186548,0.));
#774=DIRECTION('',(0.,0.,1.));
#775=DIRECTION('center_axis',(0.707106781186548,-0.707106781186547,0.));
#776=DIRECTION('ref_axis',(0.707106781186547,0.707106781186548,0.));
#777=DIRECTION('',(0.,0.,1.));
#778=DIRECTION('',(0.707106781186547,0.707106781186548,0.));
#779=DIRECTION('center_axis',(-0.707106781186548,-0.707106781186547,0.));
#780=DIRECTION('ref_axis',(0.707106781186547,-0.707106781186548,0.));
#781=DIRECTION('',(0.,0.,1.));
#782=DIRECTION('',(0.707106781186547,-0.707106781186548,0.));
#783=DIRECTION('center_axis',(0.,0.,1.));
#784=DIRECTION('ref_axis',(-0.707106781186548,-0.707106781186547,0.));
#785=DIRECTION('',(0.,0.,1.));
#786=DIRECTION('center_axis',(0.,0.,1.));
#787=DIRECTION('ref_axis',(0.707106781186547,-0.707106781186548,0.));
#788=DIRECTION('center_axis',(0.707106781186548,0.707106781186547,0.));
#789=DIRECTION('ref_axis',(-0.707106781186547,0.707106781186548,0.));
#790=DIRECTION('',(0.,0.,1.));
#791=DIRECTION('',(-0.707106781186547,0.707106781186548,0.));
#792=DIRECTION('center_axis',(0.707106781186548,-0.707106781186547,0.));
#793=DIRECTION('ref_axis',(0.707106781186547,0.707106781186548,0.));
#794=DIRECTION('',(0.,0.,1.));
#795=DIRECTION('',(0.707106781186547,0.707106781186548,0.));
#796=DIRECTION('center_axis',(0.,0.,1.));
#797=DIRECTION('ref_axis',(1.,0.,0.));
#798=DIRECTION('center_axis',(0.707106781186547,-0.707106781186548,0.));
#799=DIRECTION('ref_axis',(-0.5,-0.5,0.707106781186548));
#800=DIRECTION('center_axis',(-0.707106781186548,0.707106781186548,0.));
#801=DIRECTION('ref_axis',(-0.707106781186548,-0.707106781186548,0.));
#802=DIRECTION('',(-0.707106781186547,0.707106781186548,0.));
#803=DIRECTION('center_axis',(1.,0.,0.));
#804=DIRECTION('ref_axis',(0.,1.,0.));
#805=DIRECTION('center_axis',(-0.707106781186548,-0.707106781186547,0.));
#806=DIRECTION('ref_axis',(-0.5,0.5,0.707106781186548));
#807=DIRECTION('',(-0.707106781186548,-0.707106781186547,0.));
#808=DIRECTION('center_axis',(0.707106781186546,0.707106781186549,0.));
#809=DIRECTION('ref_axis',(-0.707106781186549,0.707106781186546,0.));
#810=DIRECTION('',(0.707106781186548,0.707106781186547,0.));
#811=DIRECTION('center_axis',(0.,-1.,0.));
#812=DIRECTION('ref_axis',(1.,0.,0.));
#813=DIRECTION('center_axis',(-0.707106781186547,0.707106781186548,0.));
#814=DIRECTION('ref_axis',(0.5,0.5,0.707106781186548));
#815=DIRECTION('',(-0.707106781186547,0.707106781186548,0.));
#816=DIRECTION('center_axis',(0.70710678118655,-0.707106781186545,0.));
#817=DIRECTION('ref_axis',(0.707106781186545,0.70710678118655,0.));
#818=DIRECTION('',(0.707106781186547,-0.707106781186548,0.));
#819=DIRECTION('center_axis',(-1.,3.14018491736757E-15,0.));
#820=DIRECTION('ref_axis',(-3.14018491736757E-15,-1.,0.));
#821=DIRECTION('center_axis',(0.,0.,1.));
#822=DIRECTION('ref_axis',(-0.707106781186547,0.707106781186548,0.));
#823=DIRECTION('center_axis',(-0.70710678118655,0.707106781186545,0.));
#824=DIRECTION('ref_axis',(-0.707106781186545,-0.70710678118655,0.));
#825=DIRECTION('center_axis',(0.,0.,-1.));
#826=DIRECTION('ref_axis',(-0.707106781186546,0.707106781186549,0.));
#827=DIRECTION('center_axis',(0.,0.,1.));
#828=DIRECTION('ref_axis',(-0.707106781186546,0.707106781186549,0.));
#829=DIRECTION('center_axis',(0.707106781186547,-0.707106781186548,0.));
#830=DIRECTION('ref_axis',(-0.5,-0.5,0.707106781186548));
#831=DIRECTION('',(-0.707106781186547,0.707106781186548,0.));
#832=DIRECTION('',(0.707106781186547,-0.707106781186548,0.));
#833=DIRECTION('center_axis',(0.707106781186547,0.707106781186548,0.));
#834=DIRECTION('ref_axis',(0.500000000000002,-0.499999999999999,0.707106781186547));
#835=DIRECTION('center_axis',(-0.707106781186548,-0.707106781186548,0.));
#836=DIRECTION('ref_axis',(0.707106781186548,-0.707106781186548,0.));
#837=DIRECTION('',(-0.707106781186547,-0.707106781186548,0.));
#838=DIRECTION('center_axis',(0.,1.,0.));
#839=DIRECTION('ref_axis',(-1.,0.,0.));
#840=DIRECTION('center_axis',(0.,0.,1.));
#841=DIRECTION('ref_axis',(1.,0.,0.));
#842=DIRECTION('center_axis',(0.707106781186545,0.70710678118655,0.));
#843=DIRECTION('ref_axis',(-0.70710678118655,0.707106781186545,0.));
#844=DIRECTION('center_axis',(0.,0.,-1.));
#845=DIRECTION('ref_axis',(0.707106781186549,0.707106781186546,0.));
#846=DIRECTION('center_axis',(0.,0.,1.));
#847=DIRECTION('ref_axis',(0.707106781186549,0.707106781186546,0.));
#848=DIRECTION('center_axis',(-0.707106781186548,-0.707106781186547,0.));
#849=DIRECTION('ref_axis',(-0.5,0.5,0.707106781186548));
#850=DIRECTION('',(0.707106781186548,0.707106781186547,0.));
#851=DIRECTION('',(-0.707106781186548,-0.707106781186547,0.));
#852=DIRECTION('center_axis',(0.,0.,1.));
#853=DIRECTION('ref_axis',(-0.707106781186548,-0.707106781186547,0.));
#854=DIRECTION('center_axis',(-0.707106781186548,-0.707106781186547,0.));
#855=DIRECTION('ref_axis',(0.707106781186547,-0.707106781186548,0.));
#856=DIRECTION('center_axis',(0.,0.,-1.));
#857=DIRECTION('ref_axis',(-0.707106781186548,-0.707106781186548,0.));
#858=DIRECTION('center_axis',(0.707106781186547,0.707106781186548,0.));
#859=DIRECTION('ref_axis',(0.499999999999999,-0.500000000000001,0.707106781186547));
#860=DIRECTION('',(-0.707106781186547,-0.707106781186548,0.));
#861=DIRECTION('center_axis',(0.,0.,1.));
#862=DIRECTION('ref_axis',(1.,0.,0.));
#863=DIRECTION('center_axis',(0.707106781186547,-0.707106781186548,0.));
#864=DIRECTION('ref_axis',(0.707106781186549,0.707106781186547,0.));
#865=DIRECTION('center_axis',(0.,0.,-1.));
#866=DIRECTION('ref_axis',(0.707106781186547,-0.707106781186548,0.));
#867=DIRECTION('center_axis',(-0.707106781186547,0.707106781186548,0.));
#868=DIRECTION('ref_axis',(0.5,0.500000000000002,0.707106781186546));
#869=DIRECTION('',(0.707106781186547,-0.707106781186548,0.));
#870=DIRECTION('center_axis',(-0.707106781186548,-0.707106781186547,0.));
#871=DIRECTION('ref_axis',(0.707106781186547,-0.707106781186548,0.));
#872=DIRECTION('',(0.,0.,1.));
#873=DIRECTION('',(0.,0.,1.));
#874=DIRECTION('center_axis',(0.,0.,1.));
#875=DIRECTION('ref_axis',(0.707106781186549,0.707106781186546,0.));
#876=DIRECTION('',(0.,0.,1.));
#877=DIRECTION('center_axis',(0.707106781186548,0.707106781186547,0.));
#878=DIRECTION('ref_axis',(-0.707106781186547,0.707106781186548,0.));
#879=DIRECTION('',(0.,0.,1.));
#880=DIRECTION('center_axis',(-0.707106781186547,0.707106781186548,0.));
#881=DIRECTION('ref_axis',(-0.707106781186548,-0.707106781186547,0.));
#882=DIRECTION('',(0.,0.,1.));
#883=DIRECTION('center_axis',(0.,0.,1.));
#884=DIRECTION('ref_axis',(0.707106781186546,-0.707106781186548,0.));
#885=DIRECTION('center_axis',(0.,0.,1.));
#886=DIRECTION('ref_axis',(1.,0.,0.));
#887=DIRECTION('center_axis',(-0.707106781186547,0.707106781186548,0.));
#888=DIRECTION('ref_axis',(-0.707106781186548,-0.707106781186547,0.));
#889=CARTESIAN_POINT('',(0.,0.,0.));
#890=CARTESIAN_POINT('Origin',(-16.4644660940673,19.2928932188135,1.));
#891=CARTESIAN_POINT('',(-15.7573593128807,20.,0.));
#892=CARTESIAN_POINT('',(-1.87867965644037,33.8786796564404,0.));
#893=CARTESIAN_POINT('',(-16.4644660940673,19.2928932188135,0.));
#894=CARTESIAN_POINT('',(-1.17157287525381,33.1715728752538,1.));
#895=CARTESIAN_POINT('Origin',(-1.87867965644037,33.8786796564404,1.));
#896=CARTESIAN_POINT('',(-14.3431457505076,20.,1.));
#897=CARTESIAN_POINT('',(-15.7573593128807,18.5857864376269,1.));
#898=CARTESIAN_POINT('Origin',(-15.7573593128807,20.,1.));
#899=CARTESIAN_POINT('Origin',(-4.,36.,1.));
#900=CARTESIAN_POINT('',(-6.12132034355964,38.1213203435596,0.));
#901=CARTESIAN_POINT('',(-6.82842712474619,38.8284271247462,1.));
#902=CARTESIAN_POINT('Origin',(-6.12132034355964,38.1213203435596,1.));
#903=CARTESIAN_POINT('Origin',(-4.,36.,1.));
#904=CARTESIAN_POINT('Origin',(-4.,36.,0.));
#905=CARTESIAN_POINT('Origin',(-14.1213203435596,30.1213203435596,1.));
#906=CARTESIAN_POINT('',(-20.,25.6568542494924,1.));
#907=CARTESIAN_POINT('',(-14.8284271247462,30.8284271247462,1.));
#908=CARTESIAN_POINT('',(-20.,24.2426406871193,0.));
#909=CARTESIAN_POINT('',(-14.1213203435596,30.1213203435596,0.));
#910=CARTESIAN_POINT('Origin',(-20.,24.2426406871193,1.));
#911=CARTESIAN_POINT('Origin',(-19.2928932188134,23.5355339059327,1.));
#912=CARTESIAN_POINT('',(-33.8786796564403,38.1213203435596,0.));
#913=CARTESIAN_POINT('',(-19.2928932188134,23.5355339059327,0.));
#914=CARTESIAN_POINT('',(-33.1715728752538,38.8284271247462,1.));
#915=CARTESIAN_POINT('Origin',(-33.8786796564403,38.1213203435596,1.));
#916=CARTESIAN_POINT('',(-18.5857864376269,24.2426406871193,1.));
#917=CARTESIAN_POINT('Origin',(-36.,36.,1.));
#918=CARTESIAN_POINT('',(-38.1213203435596,33.8786796564404,0.));
#919=CARTESIAN_POINT('',(-38.8284271247462,33.1715728752538,1.));
#920=CARTESIAN_POINT('Origin',(-38.1213203435596,33.8786796564404,1.));
#921=CARTESIAN_POINT('Origin',(-36.,36.,1.));
#922=CARTESIAN_POINT('Origin',(-36.,36.,0.));
#923=CARTESIAN_POINT('Origin',(-30.1213203435596,25.8786796564404,1.));
#924=CARTESIAN_POINT('',(-25.6568542494924,20.,1.));
#925=CARTESIAN_POINT('',(-30.8284271247462,25.1715728752538,1.));
#926=CARTESIAN_POINT('',(-24.2426406871193,20.,0.));
#927=CARTESIAN_POINT('',(-30.1213203435596,25.8786796564404,0.));
#928=CARTESIAN_POINT('Origin',(-24.2426406871193,20.,1.));
#929=CARTESIAN_POINT('Origin',(-23.5355339059327,20.7071067811865,1.));
#930=CARTESIAN_POINT('',(-38.1213203435596,6.12132034355964,0.));
#931=CARTESIAN_POINT('',(-23.5355339059327,20.7071067811865,0.));
#932=CARTESIAN_POINT('',(-38.8284271247462,6.82842712474619,1.));
#933=CARTESIAN_POINT('Origin',(-38.1213203435596,6.12132034355964,1.));
#934=CARTESIAN_POINT('',(-24.2426406871193,21.4142135623731,1.));
#935=CARTESIAN_POINT('Origin',(-36.,4.,1.));
#936=CARTESIAN_POINT('',(-33.8786796564404,1.87867965644036,0.));
#937=CARTESIAN_POINT('',(-33.1715728752538,1.17157287525381,1.));
#938=CARTESIAN_POINT('Origin',(-33.8786796564404,1.87867965644036,1.));
#939=CARTESIAN_POINT('Origin',(-36.,4.,1.));
#940=CARTESIAN_POINT('Origin',(-36.,4.,0.));
#941=CARTESIAN_POINT('Origin',(-25.8786796564404,9.87867965644036,1.));
#942=CARTESIAN_POINT('',(-20.,14.3431457505076,1.));
#943=CARTESIAN_POINT('',(-25.1715728752538,9.17157287525381,1.));
#944=CARTESIAN_POINT('',(-20.,15.7573593128807,0.));
#945=CARTESIAN_POINT('',(-25.8786796564404,9.87867965644036,0.));
#946=CARTESIAN_POINT('Origin',(-20.,15.7573593128807,1.));
#947=CARTESIAN_POINT('Origin',(-20.7071067811865,16.4644660940673,1.));
#948=CARTESIAN_POINT('',(-6.12132034355964,1.87867965644035,0.));
#949=CARTESIAN_POINT('',(-20.7071067811865,16.4644660940673,0.));
#950=CARTESIAN_POINT('',(-6.82842712474619,1.17157287525381,1.));
#951=CARTESIAN_POINT('Origin',(-6.12132034355964,1.87867965644035,1.));
#952=CARTESIAN_POINT('',(-21.4142135623731,15.7573593128807,1.));
#953=CARTESIAN_POINT('Origin',(-4.,4.,1.));
#954=CARTESIAN_POINT('',(-1.87867965644036,6.12132034355964,0.));
#955=CARTESIAN_POINT('',(-1.17157287525381,6.82842712474619,1.));
#956=CARTESIAN_POINT('Origin',(-1.87867965644036,6.12132034355964,1.));
#957=CARTESIAN_POINT('Origin',(-4.,4.,1.));
#958=CARTESIAN_POINT('Origin',(-4.,4.,0.));
#959=CARTESIAN_POINT('Origin',(-9.87867965644036,14.1213203435596,1.));
#960=CARTESIAN_POINT('',(-9.17157287525381,14.8284271247462,1.));
#961=CARTESIAN_POINT('',(-9.87867965644036,14.1213203435596,0.));
#962=CARTESIAN_POINT('Origin',(-36.,4.,0.));
#963=CARTESIAN_POINT('',(-33.1715728752538,1.17157287525381,7.));
#964=CARTESIAN_POINT('',(-33.1715728752538,1.17157287525381,0.));
#965=CARTESIAN_POINT('',(-38.8284271247462,6.82842712474619,7.));
#966=CARTESIAN_POINT('Origin',(-36.,4.,7.));
#967=CARTESIAN_POINT('',(-38.8284271247462,6.82842712474619,0.));
#968=CARTESIAN_POINT('Origin',(-33.1715728752538,1.17157287525381,0.));
#969=CARTESIAN_POINT('',(-20.,14.3431457505076,7.));
#970=CARTESIAN_POINT('',(-20.,14.3431457505076,0.));
#971=CARTESIAN_POINT('',(-25.1715728752538,9.17157287525381,7.));
#972=CARTESIAN_POINT('Origin',(-20.,14.3431457505076,0.));
#973=CARTESIAN_POINT('',(-6.82842712474619,1.17157287525381,7.));
#974=CARTESIAN_POINT('',(-6.82842712474619,1.17157287525381,0.));
#975=CARTESIAN_POINT('',(-21.4142135623731,15.7573593128807,7.));
#976=CARTESIAN_POINT('Origin',(-4.,4.,0.));
#977=CARTESIAN_POINT('',(-1.17157287525381,6.82842712474619,7.));
#978=CARTESIAN_POINT('',(-1.17157287525381,6.82842712474619,0.));
#979=CARTESIAN_POINT('Origin',(-4.,4.,7.));
#980=CARTESIAN_POINT('Origin',(-1.17157287525381,6.82842712474619,0.));
#981=CARTESIAN_POINT('',(-14.3431457505076,20.,7.));
#982=CARTESIAN_POINT('',(-14.3431457505076,20.,0.));
#983=CARTESIAN_POINT('',(-9.17157287525381,14.8284271247462,7.));
#984=CARTESIAN_POINT('Origin',(-14.3431457505076,20.,0.));
#985=CARTESIAN_POINT('',(-1.17157287525381,33.1715728752538,7.));
#986=CARTESIAN_POINT('',(-1.17157287525381,33.1715728752538,0.));
#987=CARTESIAN_POINT('',(-15.7573593128807,18.5857864376269,7.));
#988=CARTESIAN_POINT('Origin',(-20.,20.,0.));
#989=CARTESIAN_POINT('Origin',(-20.7071067811865,16.4644660940673,7.));
#990=CARTESIAN_POINT('',(-6.12132034355964,1.87867965644036,8.));
#991=CARTESIAN_POINT('Origin',(-6.12132034355964,1.87867965644036,7.));
#992=CARTESIAN_POINT('',(-20.,15.7573593128807,8.));
#993=CARTESIAN_POINT('',(-20.7071067811865,16.4644660940673,8.));
#994=CARTESIAN_POINT('Origin',(-20.,15.7573593128807,7.));
#995=CARTESIAN_POINT('Origin',(-23.5355339059327,20.7071067811865,7.));
#996=CARTESIAN_POINT('',(-25.6568542494924,20.,7.));
#997=CARTESIAN_POINT('',(-24.2426406871193,21.4142135623731,7.));
#998=CARTESIAN_POINT('',(-38.1213203435596,6.12132034355964,8.));
#999=CARTESIAN_POINT('Origin',(-38.1213203435596,6.12132034355964,7.));
#1000=CARTESIAN_POINT('',(-24.2426406871193,20.,8.));
#1001=CARTESIAN_POINT('',(-23.5355339059327,20.7071067811865,8.));
#1002=CARTESIAN_POINT('Origin',(-24.2426406871193,20.,7.));
#1003=CARTESIAN_POINT('Origin',(-19.2928932188134,23.5355339059327,7.));
#1004=CARTESIAN_POINT('',(-20.,25.6568542494924,7.));
#1005=CARTESIAN_POINT('',(-33.1715728752538,38.8284271247462,7.));
#1006=CARTESIAN_POINT('',(-18.5857864376269,24.2426406871193,7.));
#1007=CARTESIAN_POINT('',(-33.8786796564403,38.1213203435596,8.));
#1008=CARTESIAN_POINT('Origin',(-33.8786796564403,38.1213203435596,7.));
#1009=CARTESIAN_POINT('',(-20.,24.2426406871193,8.));
#1010=CARTESIAN_POINT('',(-19.2928932188134,23.5355339059327,8.));
#1011=CARTESIAN_POINT('Origin',(-20.,24.2426406871193,7.));
#1012=CARTESIAN_POINT('Origin',(-36.,36.,7.));
#1013=CARTESIAN_POINT('',(-38.8284271247462,33.1715728752538,7.));
#1014=CARTESIAN_POINT('',(-38.1213203435596,33.8786796564404,8.));
#1015=CARTESIAN_POINT('Origin',(-38.1213203435596,33.8786796564404,7.));
#1016=CARTESIAN_POINT('Origin',(-36.,36.,8.));
#1017=CARTESIAN_POINT('Origin',(-36.,36.,7.));
#1018=CARTESIAN_POINT('Origin',(-30.1213203435596,25.8786796564404,7.));
#1019=CARTESIAN_POINT('',(-30.1213203435596,25.8786796564404,8.));
#1020=CARTESIAN_POINT('',(-30.8284271247462,25.1715728752538,7.));
#1021=CARTESIAN_POINT('Origin',(-16.4644660940673,19.2928932188135,7.));
#1022=CARTESIAN_POINT('',(-1.87867965644036,33.8786796564404,8.));
#1023=CARTESIAN_POINT('Origin',(-1.87867965644036,33.8786796564404,7.));
#1024=CARTESIAN_POINT('',(-15.7573593128807,20.,8.));
#1025=CARTESIAN_POINT('',(-16.4644660940673,19.2928932188135,8.));
#1026=CARTESIAN_POINT('Origin',(-15.7573593128807,20.,7.));
#1027=CARTESIAN_POINT('Origin',(-4.,36.,7.));
#1028=CARTESIAN_POINT('',(-6.82842712474619,38.8284271247462,7.));
#1029=CARTESIAN_POINT('',(-6.12132034355964,38.1213203435596,8.));
#1030=CARTESIAN_POINT('Origin',(-6.12132034355964,38.1213203435596,7.));
#1031=CARTESIAN_POINT('Origin',(-4.,36.,8.));
#1032=CARTESIAN_POINT('Origin',(-4.,36.,7.));
#1033=CARTESIAN_POINT('Origin',(-14.1213203435596,30.1213203435596,7.));
#1034=CARTESIAN_POINT('',(-14.1213203435596,30.1213203435596,8.));
#1035=CARTESIAN_POINT('',(-14.8284271247462,30.8284271247462,7.));
#1036=CARTESIAN_POINT('Origin',(-36.,4.,7.));
#1037=CARTESIAN_POINT('',(-33.8786796564404,1.87867965644036,8.));
#1038=CARTESIAN_POINT('Origin',(-33.8786796564404,1.87867965644036,7.));
#1039=CARTESIAN_POINT('Origin',(-36.,4.,8.));
#1040=CARTESIAN_POINT('Origin',(-25.8786796564404,9.87867965644036,7.));
#1041=CARTESIAN_POINT('',(-25.8786796564404,9.87867965644036,8.));
#1042=CARTESIAN_POINT('Origin',(-4.,4.,7.));
#1043=CARTESIAN_POINT('',(-1.87867965644036,6.12132034355964,8.));
#1044=CARTESIAN_POINT('Origin',(-1.87867965644036,6.12132034355964,7.));
#1045=CARTESIAN_POINT('Origin',(-4.,4.,8.));
#1046=CARTESIAN_POINT('Origin',(-9.87867965644036,14.1213203435596,7.));
#1047=CARTESIAN_POINT('',(-9.87867965644036,14.1213203435596,8.));
#1048=CARTESIAN_POINT('Origin',(-38.8284271247462,33.1715728752538,0.));
#1049=CARTESIAN_POINT('',(-25.6568542494924,20.,0.));
#1050=CARTESIAN_POINT('',(-38.8284271247462,33.1715728752538,0.));
#1051=CARTESIAN_POINT('Origin',(-36.,36.,0.));
#1052=CARTESIAN_POINT('',(-33.1715728752538,38.8284271247462,0.));
#1053=CARTESIAN_POINT('Origin',(-20.,25.6568542494924,0.));
#1054=CARTESIAN_POINT('',(-20.,25.6568542494924,0.));
#1055=CARTESIAN_POINT('Origin',(-6.82842712474619,38.8284271247462,0.));
#1056=CARTESIAN_POINT('',(-6.82842712474619,38.8284271247462,0.));
#1057=CARTESIAN_POINT('Origin',(-4.,36.,0.));
#1058=CARTESIAN_POINT('Origin',(-20.,20.,8.));
#1059=CARTESIAN_POINT('Origin',(-25.6568542494924,20.,0.));
#1060=UNCERTAINTY_MEASURE_WITH_UNIT(LENGTH_MEASURE(0.01),#1064,
'DISTANCE_ACCURACY_VALUE',
'Maximum model space distance between geometric entities at asserted c
onnectivities');
#1061=UNCERTAINTY_MEASURE_WITH_UNIT(LENGTH_MEASURE(0.01),#1064,
'DISTANCE_ACCURACY_VALUE',
'Maximum model space distance between geometric entities at asserted c
onnectivities');
#1062=(
GEOMETRIC_REPRESENTATION_CONTEXT(3)
GLOBAL_UNCERTAINTY_ASSIGNED_CONTEXT((#1060))
GLOBAL_UNIT_ASSIGNED_CONTEXT((#1064,#1066,#1067))
REPRESENTATION_CONTEXT('','3D')
);
#1063=(
GEOMETRIC_REPRESENTATION_CONTEXT(3)
GLOBAL_UNCERTAINTY_ASSIGNED_CONTEXT((#1061))
GLOBAL_UNIT_ASSIGNED_CONTEXT((#1064,#1066,#1067))
REPRESENTATION_CONTEXT('','3D')
);
#1064=(
LENGTH_UNIT()
NAMED_UNIT(*)
SI_UNIT(.MILLI.,.METRE.)
);
#1065=(
LENGTH_UNIT()
NAMED_UNIT(*)
SI_UNIT($,.METRE.)
);
#1066=(
NAMED_UNIT(*)
PLANE_ANGLE_UNIT()
SI_UNIT($,.RADIAN.)
);
#1067=(
NAMED_UNIT(*)
SI_UNIT($,.STERADIAN.)
SOLID_ANGLE_UNIT()
);
#1068=SHAPE_DEFINITION_REPRESENTATION(#1069,#1070);
#1069=PRODUCT_DEFINITION_SHAPE('',$,#1072);
#1070=SHAPE_REPRESENTATION('',(#608),#1062);
#1071=PRODUCT_DEFINITION_CONTEXT('part definition',#1076,'design');
#1072=PRODUCT_DEFINITION('X','X',#1073,#1071);
#1073=PRODUCT_DEFINITION_FORMATION('',$,#1078);
#1074=PRODUCT_RELATED_PRODUCT_CATEGORY('X','X',(#1078));
#1075=APPLICATION_PROTOCOL_DEFINITION('international standard',
'automotive_design',2009,#1076);
#1076=APPLICATION_CONTEXT(
'Core Data for Automotive Mechanical Design Process');
#1077=PRODUCT_CONTEXT('part definition',#1076,'mechanical');
#1078=PRODUCT('X','X',$,(#1077));
#1079=PRESENTATION_STYLE_ASSIGNMENT((#1080));
#1080=SURFACE_STYLE_USAGE(.BOTH.,#1081);
#1081=SURFACE_SIDE_STYLE('',(#1082));
#1082=SURFACE_STYLE_FILL_AREA(#1083);
#1083=FILL_AREA_STYLE('Steel - Satin',(#1084));
#1084=FILL_AREA_STYLE_COLOUR('Steel - Satin',#1085);
#1085=COLOUR_RGB('Steel - Satin',0.627450980392157,0.627450980392157,0.627450980392157);
ENDSEC;
END-ISO-10303-21;
